<?xml version="1.0" standalone="no"?>
<!DOCTYPE svg PUBLIC "-//W3C//DTD SVG 1.1//EN" "http://www.w3.org/Graphics/SVG/1.1/DTD/svg11.dtd" >
<!--
2013-9-30: Created.
-->
<svg>
<metadata>
Created by iconfont
</metadata>
<defs>

<font id="iconfont" horiz-adv-x="1024" >
  <font-face
    font-family="iconfont"
    font-weight="500"
    font-stretch="normal"
    units-per-em="1024"
    ascent="896"
    descent="-128"
  />
    <missing-glyph />
    
    <glyph glyph-name="music" unicode="&#58889;" d="M794.856448-95.993088l0 66.468864-0.825344 0c0.323584 5.497856 0.825344 10.995712 0.825344 16.581632L794.856448 269.514496l0 83.050496c0 155.978752-126.431232 282.40896-282.40896 282.40896-155.978752 0-282.409984-126.431232-282.409984-282.40896l0-83.050496 0-282.456064c0-5.586944 0.50688-11.0848 0.825344-16.581632l-0.825344 0 0-66.468864c0 0-166.148096 2.79552-166.148096 182.729728 0 102.109184 53.413888 147.093504 99.679232 166.97344l0 98.853888c0 192.669696 156.208128 348.877824 348.878848 348.877824 192.669696 0 348.877824-156.208128 348.877824-348.877824l0-98.853888c46.265344-19.879936 99.679232-64.864256 99.679232-166.97344C961.004544-93.196544 794.856448-95.993088 794.856448-95.993088zM296.459264-95.993088l-33.210368 0 0 365.50656 33.210368 0L296.459264-95.993088zM761.645056-95.993088l-33.210368 0 0 365.50656 33.210368 0L761.645056-95.993088z"  horiz-adv-x="1024" />

    
    <glyph glyph-name="pay" unicode="&#58908;" d="M519.605212 589.50151 588.673264 749.575252c0 0-43.592844-34.011628-69.068052-34.011628-25.50693 0-65.86715 33.037441-65.86715 33.037441s-43.560098-33.037441-69.048609-33.037441c-25.50693 0-66.965158 31.990598-66.965158 31.990598l70.128197-158.053736L519.605212 589.500487 519.605212 589.50151zM385.731178 573.504164l135.990231 0 0-48.022737L385.731178 525.481428 385.731178 573.504164 385.731178 573.504164zM646.325311-76.045585c-9.380648 10.383488-16.972557 21.097504-22.777773 32.157397-5.811356 11.050684-8.719592 22.163789-8.719592 33.329083L614.827947 175.705136l13.733792 2.02103 154.175405 28.794813c-64.87352 170.893158-261.313517 302.95901-261.313517 302.95901L385.731178 509.479989c0 0-296.701492-158.183695-296.701492-403.623687 0-245.431805 308.040748-252.490571 308.040748-252.490571s60.430324-4.231371 111.883183 0c0-1.122567 83.011622 7.187703 160.860664 47.982828C661.253302-91.428947 653.416823-83.900483 646.325311-76.045585L646.325311-76.045585zM556.274366 175.225205l0-48.26219-82.104973 0 0-26.246781 82.104973 0 0-48.26219-82.104973 0 0-59.614749-61.413721 0 0 59.614749-81.030501 0 0 48.26219 81.030501 0 0 26.246781-81.030501 0 0 48.26219 57.033971 0-67.940368 137.852648 67.26908 0 43.674709-93.088118c5.54632-11.664667 9.471722-21.881356 11.82328-30.792307 2.753717 9.649777 6.693446 19.895119 11.79872 30.792307l44.529169 93.088118 67.316152 0-68.827575-137.852648 57.867966 0L556.274366 175.225205zM925.953963 161.775892l-140.840702 25.815969-138.129964-25.815969-12.313443-1.813299 0-166.954453c0-10.015098 2.610454-19.97596 7.817036-29.880541 5.200442-9.917884 12.005428-19.514449 20.417005-28.827559 8.405437-9.304923 17.960047-18.11866 28.67918-26.419719 10.705829-8.316409 21.617343-15.72003 32.735565-22.226211 11.102872-6.511297 21.813818-11.923564 32.124651-16.213263 10.311857-4.309142 19.367093-7.264451 27.177989-8.867972l3.302209-0.594541 3.603061 0.594541c7.606235 1.607614 16.468067 4.562922 26.573215 8.867972 10.114358 4.2897 20.517289 9.701966 31.232328 16.213263 10.709923 6.507204 21.270443 13.909801 31.67849 22.226211 10.408047 8.305153 19.674085 17.114796 27.777647 26.419719 8.109702 9.31311 14.665001 18.909675 19.668968 28.827559 5.003967 9.904581 7.514137 19.865443 7.514137 29.880541L934.971337 159.96771l-9.011234 1.808182L925.953963 161.775892zM904.69887-10.294069c0-7.700379-1.867534-15.301498-5.609765-22.788006-3.743254-7.480368-8.747221-14.69263-15.023158-21.620413-6.27696-6.939039-13.484106-13.441127-21.636786-19.49603-8.146541-6.05081-16.621563-11.56029-25.426089-16.512069-8.804527-4.946662-17.72571-9.250688-26.750247-12.873192-9.030677-3.632737-17.399275-6.338359-25.095561-8.099469l0 149.934824L664.943344 38.251577 664.943344 143.60402l118.557186 20.148899 1.655709-0.331551 0-125.169791 119.5457 0 0-48.545646L904.69887-10.294069zM904.69887-10.294069"  horiz-adv-x="1024" />

    
    <glyph glyph-name="admin" unicode="&#58932;" d="M904.67 114.42c-17.64 129.24-96.9 241.080-244.14 285.57 40.35 38.94 65.55 93.48 65.55 153.93 0 118.17-95.82 214.080-214.080 214.080s-214.080-95.91-214.080-214.080c0-60.48 25.2-115.020 65.58-153.96-147.090-44.52-226.38-156.36-244.020-285.57-23.040-167.52-85.71-306.39 392.52-306.39 478.38 0 415.41 138.87 392.67 306.42zM711.38 190.14l-232.23-232.23c-3.18-3.18-7.38-4.71-11.55-4.65-4.17-0.060-8.37 1.47-11.55 4.65l-128.79 128.82c-6.24 6.24-6.24 16.32 0 22.56l38.7 38.7c6.24 6.24 16.32 6.24 22.56 0l79.11-79.11 182.52 182.52c6.24 6.24 16.35 6.24 22.56 0l38.67-38.7c6.24-6.21 6.24-16.32 0-22.56z"  horiz-adv-x="1024" />

    
    <glyph glyph-name="feedback" unicode="&#58920;" d="M956.735487 476.276539l-76.543912 0 0-38.229289-38.250623 0 0-535.316715L114.816459-97.269466 114.816459 629.236362l535.764715 0L650.581173 667.465651l38.271956 0L688.853129 743.945563l-38.271956 0L650.581173 782.174852 76.544503 782.174852 76.544503 743.945563 38.272547 743.945563l0-38.229289L0.000591 705.716274l0-879.465651 38.271956 0L38.272547-212l880.190984 0c0 0-4.586661 33.642628 0 38.229289 4.970661 4.970661 38.271956 0 38.271956 0l0 38.229289 38.271956 0L995.007442 438.04725l-38.271956 0L956.735487 476.276539zM942.50617 592.991071 804.820995 730.612245 516.373328 442.399245 444.010745 370.100661 581.738586 232.522153ZM1013.780754 715.828262l-86.079901 85.994567c-14.25065 14.207984-38.143956 13.461318-53.354605-1.749331l-41.322619-41.258619 137.706508-137.599841 41.301286 41.301286C1027.263405 677.726973 1028.052738 701.556279 1013.780754 715.828262zM404.117458 192.6502 553.493285 204.340853 415.786778 341.898027Z"  horiz-adv-x="1024" />

    
    <glyph glyph-name="insurance" unicode="&#58977;" d="M71.932286-61.483938c0 240.662175 0 481.323327 0 721.985502 0.481977 1.962701 1.13894 3.900843 1.420349 5.892197 4.860704 34.399461 31.801287 63.658855 65.705468 71.257927 3.964288 0.88823 7.964392 1.614777 11.948123 2.415003 240.989633 0 481.978243 0 722.967876 0 0.511653-0.173962 1.010003-0.417509 1.535983-0.511653 3.692089-0.665149 7.458879-1.037632 11.075243-1.986237 34.3002-8.999978 55.515385-31.099299 64.700581-65.072041 0.88209-3.263323 1.189082-6.683213 1.763157-10.030447 0-242.134713 0-484.270449 0-726.405161-0.382717-2.133593-0.692778-4.282536-1.159406-6.39771-7.66968-34.779108-28.593222-57.358359-62.61713-67.743894-4.341888-1.325182-8.884344-1.995447-13.33368-2.968611-241.970984 0-483.942991 0-725.913974 0-1.418302 0.313132-2.822278 0.717338-4.25593 0.924045-35.632545 5.15951-65.47727 33.849946-71.91182 69.13252C73.277934-67.812063 72.576969-64.653117 71.932286-61.483938zM497.480308 290.728846c-0.090051-0.539282-0.180102-0.933255-0.218988-1.332345-1.772366-18.424628-2.456958-36.870746-1.581008-55.379285 1.237177-26.115797 5.337565-51.699476 13.929244-76.450183 18.291598-52.68799 53.15564-90.01513 104.332207-112.108311 0.960885-0.414439 2.419096-0.373507 3.387144 0.048095 4.417613 1.921769 8.80862 3.927449 13.091156 6.132674 37.762045 19.441794 65.780169 48.272423 83.506902 86.956468 15.361873 33.522488 21.360494 69.053726 21.819958 105.601106 0.184195 14.69263-1.166569 29.401634-1.686409 44.107567-0.078795 2.217505-0.973164 2.683109-2.917446 2.807952-13.853519 0.8913-27.42256 3.355421-40.539298 7.955182-23.725354 8.320503-43.341111 21.976524-56.547901 43.899836-0.458441 0.762363-1.780553 1.412163-2.707668 1.421372-10.475586 0.099261-20.953218 0.036839-31.429827 0.093121-1.493004 0.008186-2.319835-0.485047-3.082198-1.785669-6.208399-10.588149-14.395872-19.424398-24.178679-26.787086-18.399045-13.845333-39.4812-20.739347-62.027705-23.757077C506.272555 291.566934 501.884618 291.199567 497.480308 290.728846zM283.050588 122.451258c0 123.368772 0 246.423389 0 369.669364 1.140986 0 2.114151 0 3.087315 0 15.061021 0 30.122041-0.002047 45.183062 0.001023 11.123338 0.002047 19.002796 7.877411 19.007913 19.010983 0.007163 15.879666 0.002047 31.759331 0.002047 47.638997 0 0.946558 0 1.893116 0 2.828418 85.403089 0 170.470533 0 255.852132 0 0-67.649749 0-135.11735 0-202.744587 2.922563 0 5.531993 0 8.142447 0 2.656503 0 5.313006 0 7.892761 0 0 73.314773 0 146.190547 0 219.216747-1.347694 0-2.487657 0-3.62762 0-91.266633 0-182.533266-0.019443-273.7999 0.082888-3.113921 0.00307-5.121648-1.032516-7.166213-3.149736-23.073508-23.898293-46.204321-47.740304-69.364811-71.553663-1.237177-1.27197-1.785669-2.505054-1.785669-4.293793 0.038886-130.065288 0.035816-260.130575 0.035816-390.195863 0-0.87288 0-1.74576 0-2.741437 84.062558 0 167.815053 0 251.771187 0-2.676969 4.625344-5.385661 8.984628-7.746428 13.525038-1.105171 2.125407-2.384303 2.764973-4.743024 2.762927-73.012897-0.069585-146.026818-0.056282-219.039715-0.056282C285.609877 122.451258 284.46889 122.451258 283.050588 122.451258zM581.848834 447.657968c-86.872556 0-173.580361 0-260.242116 0 0-6.845918 0-13.512758 0-20.210297 86.815251 0 173.458587 0 260.242116 0C581.848834 434.212748 581.848834 440.820236 581.848834 447.657968zM321.549413 348.682769c66.283636 0 132.364657 0 198.528566 0 0 6.791683 0 13.441127 0 20.167319-66.264193 0-132.339074 0-198.528566 0C321.549413 362.096267 321.549413 355.497988 321.549413 348.682769zM444.321598 292.035608c-41.075511 0-81.910545 0-122.68111 0 0-6.837732 0-13.486152 0-20.106943 40.981367 0 81.758072 0 122.68111 0C444.321598 278.687602 444.321598 285.277694 444.321598 292.035608zM607.851045 127.568812c0 9.715269 0 19.332301 0 29.216415-11.992125 0-23.735587 0-35.663244 0 0 4.308119 0 8.352225 0 12.740162 11.758812 0 23.567765 0 35.518958 0 0 4.467755 0 8.593725 0 12.963243-11.864212 0-23.614837 0-35.534308 0 0 4.52813 0 8.81783 0 13.335726 9.572006 0 19.10922 0 29.340235 0-11.793604 21.776979-23.336498 43.092447-35.088146 64.790632 5.832845 0 11.20111 0.046049 16.566304-0.067538 0.569982-0.01228 1.319042-0.852414 1.650593-1.484817 10.133801-19.314904 20.225647-38.652322 30.325679-57.985646 0.112564-0.214894 0.25992-0.411369 0.393973-0.623193 3.868097 7.66968 7.695263 15.337313 11.592013 22.969131 6.056949 11.862165 12.143575 23.708981 18.286482 35.526121 0.373507 0.718361 1.342578 1.583055 2.053776 1.599428 5.636371 0.130983 11.276834 0.072655 17.448394 0.072655-11.710716-21.618367-23.245424-42.910299-34.996049-64.602344 9.933233 0 19.511379 0 29.215392 0 0-4.625344 0-8.928347 0-13.459546-11.80179 0-23.471574 0-35.30611 0 0-4.348028 0-8.471952 0-12.854772 11.68411 0 23.344684 0 35.221176 0 0-4.356214 0-8.461719 0-12.811794-11.730159 0-23.401989 0-35.292807 0 0-9.865695 0-19.493983 0-29.325909C618.279558 127.568812 613.192703 127.568812 607.851045 127.568812z"  horiz-adv-x="1024" />

    
    <glyph glyph-name="recommendfriends" unicode="&#58913;" d="M328.522222 79.085452c8.275477 0 14.275121-5.985318 14.275121-14.289448 0-8.220219-5.999644-14.262842-14.275121-14.262842l-3.752464 0L43.793412 50.533163c-7.517207 0-14.262842 6.042623-14.262842 14.262842 0 0.772596 0 1.545192 0 3.034103 1.489934 13.544481 4.497431 27.063379 8.248871 39.835264 3.751441 14.260795 9.765411 27.033703 18.041912 36.799114 20.274766 25.518187 53.322439 31.532157 87.902002 38.316677 51.833529 10.511401 108.178815 21.020756 102.150518 115.694999-0.743944 7.503904-6.757914-7.502881-17.268292-7.502881-27.034726 0-67.627237 0-111.185288 15.779382l0 0.716314c-5.255701 1.518586-9.03477 3.77907-12.786211 6.013971l-0.743944 0.772596-1.50426 0.717338 0 0c-15.765055 9.048073-16.510022 18.068518-9.751085 30.096459 0 0 0 0.716314 0.743944 0.716314 2.248204 3.77907 5.255701 6.786567 9.007141 10.538007 5.999644 6.042623 13.544481 13.517875 18.041912 24.02723 20.289092 45.103244 21.792329 83.392292 24.040533 125.489062l0 7.502881c0.74599 8.248871 0.74599 15.779382 1.50426 22.51069 0 8.303106 0.743944 15.805988 2.24718 24.081465l0 0 0 0c2.248204 23.254633 9.752108 45.820582 21.035082 65.323774 11.269671 18.785855 27.047006 34.565237 45.819558 45.87584 14.290471 8.220219 30.800493 14.262842 48.082088 18.758226 17.297968 4.497431 36.056194 6.757914 54.854329 7.53051l0 0 6.757914-0.772596 6.745634 0.772596 0.75827 0 0 0c18.785855-0.772596 36.826743-3.034103 54.081733-7.53051 17.295921-4.495384 33.833573-10.538007 48.096415-18.758226 7.502881-4.551666 15.033391-9.794064 21.047362-15.805988l0.743944-0.772596c6.759961-6.013971 12.013615-12.745279 17.269315-19.530822 4.524037-6.731308 3.0208-15.779382-3.007497-20.276812-6.757914-4.497431-15.765055-3.007497-20.262486 3.77907-4.538363 5.241374-8.289804 10.509355-13.543458 15.006785l-0.74599 0.743944c-4.495384 4.524037-10.509355 8.276501-15.765055 11.281951-12.027941 6.759961-26.303063 12.771885-41.3385 16.525372-15.006785 3.751441-30.798447 6.012947-46.577828 6.012947l-6.757914 0 0 0-0.74599 0-7.502881 0c-15.793708 0-31.558763-2.261507-46.592155-6.012947-15.021112-3.752464-29.297256-9.765411-41.309848-16.525372-14.290471-8.275477-26.290783-21.019733-35.337833-35.310204-9.007141-15.805988-15.750729-34.564213-17.254989-53.322439l0 0c-0.75827-7.53051-1.503237-15.063067-2.24718-22.565948 0-8.275477-0.760317-15.006785-0.760317-21.793352l-0.743944-8.220219c-1.503237-44.358277-3.765767-85.681428-25.544793-135.281079-6.757914-15.752776-16.537651-25.518187-24.040533-33.020044 1.488911-0.772596 2.993171-1.51654 4.495384-2.289136 38.302351-14.262842 75.889411-14.262842 100.675934-14.262842 27.047006 0 44.315298 0 45.819558-19.530822l0 0 0 0c7.53051-119.446439-60.854996-132.964314-125.46041-145.737222-28.537963-5.241374-57.08923-10.538007-70.63371-27.806299-5.999644-6.757914-9.751085-16.523325-12.744255-27.034726-2.26253-6.013971-3.765767-12.771885-5.255701-20.303418l264.437671 0L328.522222 79.082382zM684.628686 737.948311l7.502881 0c37.585013 0 75.143421-9.738805 103.681384-26.26213 37.558407-21.793352 60.84067-64.634066 65.36573-108.192118 2.233877-18.040888 2.993171-34.564213 3.751441-50.343595 2.233877-50.316989 3.0208-95.391581 27.033703-150.232606 15.035438-33.847899 46.593178-40.551578 26.304086-51.862181-4.510734-2.979868-8.262174-5.270027-13.503549-7.503904-76.647681-28.578896-148.771325-8.275477-149.542898-23.282263-11.999288-180.301436 157.045779-113.461121 210.383568-178.066535 15.035438-18.785855 21.779026-48.828079 24.786523-77.406974L684.628686 64.796004l-306.521139 0c3.007497 28.578896 9.765411 58.620096 24.799826 77.406974 53.336766 64.606437 222.369553-2.234901 210.342636 178.066535-0.760317 15.006785-72.868611-5.296633-149.501966 23.282263-5.255701 2.234901-9.007141 4.524037-13.503549 7.503904-20.303418 11.310603 11.255345 18.013259 26.290783 51.862181 24.013927 54.841026 24.772196 99.915617 27.047006 150.232606 0.743944 15.779382 1.503237 32.302707 3.751441 50.343595 4.510734 43.558052 27.807323 86.398766 65.351404 108.192118 28.551266 16.523325 66.10865 26.26213 103.69571 26.26213L684.628686 737.948311z"  horiz-adv-x="1024" />

    
    <glyph glyph-name="set" unicode="&#58882;" d="M676.474868 593.486407l-56.076667 8.611774c-14.920399 2.303149-30.541756 14.319578-34.747506 26.636417-4.105613 12.316839-12.116566 52.471739-3.104244 64.588304l33.545863 45.762566c8.912185 12.216703 7.510268 30.942304-3.204381 41.556816l-24.533542 24.533542c-10.714649 10.714649-29.44025 12.116566-41.556816 3.204381l-45.762566-33.545863c-12.216703-8.912185-31.543125-11.515744-43.05887-5.707804-11.515744 5.807941-45.862703 28.639155-48.165852 43.559554l-8.611774 56.076667C398.895365 883.783297 384.575787 896 369.455114 896l-34.747506 0c-15.120673 0-29.340113-12.216703-31.643262-27.137102l-8.611774-56.076667c-2.303149-14.920399-14.319578-30.541756-26.636417-34.747506-12.316839-4.105613-52.471739-12.116566-64.588304-3.104244l-45.762566 33.545863c-12.216703 8.912185-30.942304 7.510268-41.656953-3.204381l-24.533542-24.533542c-10.714649-10.714649-12.116566-29.44025-3.204381-41.556816l33.545863-45.762566c8.912185-12.216703 11.515744-31.543125 5.707804-43.05887-5.807941-11.515744-28.639155-45.862703-43.559554-48.165852l-56.076667-8.611774C12.767456 591.183258 0.550753 576.863681 0.550753 561.743008l0-34.747506c0-15.120673 12.216703-29.340113 27.137102-31.643262l56.076667-8.611774c14.920399-2.303149 30.541756-14.319578 34.747506-26.636417 4.105613-12.316839 12.116566-52.471739 3.104244-64.588304l-33.545863-45.762566c-8.912185-12.216703-7.510268-30.942304 3.204381-41.556816l24.533542-24.533542c10.714649-10.714649 29.44025-12.116566 41.656953-3.204381l45.762566 33.545863c12.216703 8.912185 31.543125 11.515744 43.05887 5.707804 11.515744-5.807941 45.862703-28.639155 48.165852-43.559554l8.611774-56.076667c2.303149-14.920399 16.522589-27.137102 31.643262-27.137102l34.747506 0c15.120673 0 29.340113 12.216703 31.643262 27.137102l8.611774 56.076667c2.303149 14.920399 14.319578 30.541756 26.636417 34.747506 12.316839 4.105613 52.471739 12.116566 64.588304 3.104244l45.762566-33.545863c12.216703-8.912185 30.942304-7.510268 41.556816 3.204381l24.533542 24.533542c10.714649 10.714649 12.116566 29.44025 3.204381 41.556816l-33.545863 45.762566c-8.912185 12.216703-11.515744 31.543125-5.707804 43.05887 5.807941 11.515744 28.639155 45.96284 43.559554 48.165852l56.076667 8.611774c14.920399 2.303149 27.137102 16.522589 27.137102 31.643262l0 34.747506C703.712106 576.863681 691.495404 591.183258 676.474868 593.486407L676.474868 593.486407zM352.13143 405.429298c-76.805007 0-138.990025 62.285155-138.990025 138.990025s62.285155 138.990025 138.990025 138.990025 138.990025-62.285155 138.990025-138.990025S428.936437 405.429298 352.13143 405.429298L352.13143 405.429298zM352.13143 405.429298M268.216703 544.419323c0-21.929982 9.012322-43.859965 24.633679-59.381185 15.52122-15.52122 37.351066-24.633679 59.381185-24.633679 21.929982 0 43.859965 9.012322 59.381185 24.633679 15.52122 15.52122 24.633679 37.351066 24.633679 59.381185 0 21.929982-9.012322 43.859965-24.633679 59.381185-15.52122 15.52122-37.351066 24.633679-59.381185 24.633679-21.929982 0-43.859965-9.012322-59.381185-24.633679C277.229024 588.279288 268.216703 566.449443 268.216703 544.419323L268.216703 544.419323zM268.216703 544.419323M1008.1283 97.508312l-31.543125 4.906708c-8.4115 1.30178-17.223548 8.010952-19.526697 15.020536-2.303149 6.909447-6.80931 29.540387-1.802464 36.349697l18.925875 25.735185c5.006845 6.909447 4.20575 17.423822-1.802464 23.432036l-13.818893 13.818893c-6.008214 6.008214-16.522589 6.80931-23.432036 1.802464l-25.735185-18.925875c-6.909447-5.006845-17.824369-6.508899-24.233131-3.204381-6.508899 3.304518-25.835322 16.122042-27.137102 24.533542l-4.906708 31.543125c-1.30178 8.4115-9.312732 15.320947-17.824369 15.320947l-19.526697 0c-8.511637 0-16.522589-6.909447-17.824369-15.320947l-4.906708-31.543125c-1.30178-8.4115-8.010952-17.223548-15.020536-19.526697-6.909447-2.303149-29.540387-6.80931-36.349697-1.802464l-25.735185 18.925875c-6.909447 5.006845-17.423822 4.20575-23.432036-1.802464l-13.818893-13.818893c-6.008214-6.008214-6.80931-16.522589-1.802464-23.432036l18.925875-25.735185c5.006845-6.909447 6.508899-17.724232 3.204381-24.233131-3.304518-6.508899-16.122042-25.835322-24.533542-27.137102l-31.543125-4.906708c-8.4115-1.30178-15.320947-9.312732-15.320947-17.824369l0-19.526697c0-8.511637 6.909447-16.522589 15.320947-17.824369l31.543125-4.906708c8.4115-1.30178 17.223548-8.010952 19.526697-15.020536 2.303149-6.909447 6.80931-29.540387 1.802464-36.349697l-18.925875-25.735185c-5.006845-6.909447-4.20575-17.423822 1.802464-23.432036l13.818893-13.818893c6.008214-6.008214 16.522589-6.80931 23.432036-1.802464l25.735185 18.925875c6.909447 5.006845 17.724232 6.508899 24.233131 3.204381 6.508899-3.304518 25.835322-16.122042 27.137102-24.533542l4.906708-31.543125c1.30178-8.4115 9.312732-15.320947 17.824369-15.320947l19.526697 0c8.511637 0 16.522589 6.909447 17.824369 15.320947l4.906708 31.543125c1.30178 8.4115 8.010952 17.223548 15.020536 19.526697 6.909447 2.303149 29.540387 6.80931 36.349697 1.802464l25.735185-18.925875c6.909447-5.006845 17.423822-4.20575 23.432036 1.802464l13.818893 13.818893c6.008214 6.008214 6.80931 16.522589 1.802464 23.432036l-18.925875 25.735185c-5.006845 6.909447-6.508899 17.724232-3.204381 24.233131 3.304518 6.508899 16.122042 25.835322 24.533542 27.137102l31.543125 4.906708c8.4115 1.30178 15.320947 9.312732 15.320947 17.824369l0 19.526697C1023.449247 88.19558 1016.539801 96.306669 1008.1283 97.508312L1008.1283 97.508312zM825.578721-8.236261c-43.159006 0-78.206924 35.047917-78.206924 78.206924s35.047917 78.206924 78.206924 78.206924c43.159006 0 78.206924-35.047917 78.206924-78.206924S868.837864-8.236261 825.578721-8.236261L825.578721-8.236261zM825.578721-8.236261M778.314101 69.970663c0-12.316839 5.106982-24.633679 13.818893-33.445727 8.711911-8.711911 21.02875-13.818893 33.445727-13.818893s24.633679 5.106982 33.445727 13.818893c8.711911 8.711911 13.818893 21.02875 13.818893 33.445727 0 12.316839-5.106982 24.633679-13.818893 33.445727-8.711911 8.711911-21.02875 13.818893-33.445727 13.818893s-24.633679-5.106982-33.445727-13.818893C783.421084 94.604342 778.314101 82.287502 778.314101 69.970663L778.314101 69.970663zM778.314101 69.970663"  horiz-adv-x="1024" />

    
    <glyph glyph-name="filemuisc" unicode="&#59291;" d="M827.037531 556.718156c-0.002053 0.002053 0.12623 0.004105 0.12623 0.007184l0 0.001026c0 0.138545 0.1837 0.275037 0.047208 0.409477L650.028591 731.498064c-0.046182 0.045155-0.407424 0.090311-0.407424 0.135466 0-0.002053 0-0.00821 0-0.007184-2.052516 2.731898-5.843512 4.277442-10.108639 4.277442l-0.002053 0c-0.017446 0-0.031814 0-0.047208 0L240.43167 735.903788c-26.467188 0-48.521467-21.335899-48.521467-47.803087l0-607.997178c0-26.467188 22.054279-48.212564 48.521467-48.212564l543.997691 0c26.467188 0 46.839431 21.745376 46.839431 48.212564L831.268791 545.738224c0 0.00821 0 0.017446 0 0.02463C831.268791 550.004378 829.737615 553.859002 827.037531 556.718156zM449.500902 173.223075C449.500902 148.412267 428.729445 128.35919 403.917611 128.35919l-7.634332 0C371.471445 128.35919 350.980156 148.409188 350.980156 173.264125L350.980156 288.780726C350.980156 313.594612 371.427316 333.610744 396.283279 333.610744l7.634332 0C428.731497 333.610744 449.500902 313.636689 449.500902 288.780726L449.500902 173.223075zM672.198837 173.328779C672.198837 148.514893 651.538216 128.35919 626.682253 128.35919l-7.633305 0C594.236087 128.35919 573.678092 148.514893 573.678092 173.371882L573.678092 288.889509C573.678092 313.701343 594.192985 333.610744 619.047921 333.610744l7.636384 0c24.811834 0 45.514532-19.866298 45.514532-44.721235L672.198837 173.328779zM713.249148 225.774656c0-6.714805-5.642365-12.115999-12.317146-12.115999-6.714805 0-12.313041 5.444297-12.313041 12.115999l0 81.223171c0 100.275646-80.309802 182.069417-181.112944 179.787019C410.392271 484.63381 334.560032 402.225312 334.560032 305.067436l0-79.29278c0-6.671702-5.620814-12.072896-12.292516-12.115999-6.717883 0-12.337671 5.444297-12.337671 12.115999l0 84.690896c0 110.066146 88.190435 199.543508 197.773213 201.607312C620.756641 514.223901 713.249148 418.996416 713.249148 305.944887L713.249148 225.774656zM654.854055 546.046101c-8.822738 0-16.521724 7.290535-16.521724 16.112247L638.332331 720.886558 814.950267 546.046101 654.854055 546.046101z"  horiz-adv-x="1024" />

    
    <glyph glyph-name="menu" unicode="&#58957;" d="M1216 320 320 320C284.64 320 256 348.64 256 384 256 419.36 284.64 448 320 448L1216 448C1251.36 448 1280 419.36 1280 384 1280 348.64 1251.36 320 1216 320ZM1216 768 320 768C284.64 768 256 796.64 256 832 256 867.36 284.64 896 320 896L1216 896C1251.36 896 1280 867.36 1280 832 1280 796.64 1251.36 768 1216 768ZM64-128C28.64-128 0-99.36 0-64 0-28.64 28.64 0 64 0 99.36 0 128-28.64 128-64 128-99.36 99.36-128 64-128ZM64 320C28.64 320 0 348.64 0 384 0 419.36 28.64 448 64 448 99.36 448 128 419.36 128 384 128 348.64 99.36 320 64 320ZM64 768C28.64 768 0 796.64 0 832 0 867.36 28.64 896 64 896 99.36 896 128 867.36 128 832 128 796.64 99.36 768 64 768ZM320 0 1216 0C1251.36 0 1280-28.64 1280-64 1280-99.36 1251.36-128 1216-128L320-128C284.64-128 256-99.36 256-64 256-28.64 284.64 0 320 0Z"  horiz-adv-x="1280" />

    
    <glyph glyph-name="heart" unicode="&#60537;" d="M907.8 596.8c-12.5 30.3-30.5 57.3-53.4 80.3C810.1 721.5 752 746 690.8 746c-69.3 0-134.2-31.3-179.2-86-45 54.8-109.9 86-179.2 86-61.1 0-119.3-24.6-163.7-69.4-22.9-23.1-40.9-50.2-53.5-80.6-13-31.5-19.5-64.8-19.2-99.1 0.6-74.4 32.6-143.8 87.8-190.5 2.5-2.1 4.9-4.2 7.2-6.3 12.1-10.8 48.7-44.2 91.2-82.9 75.7-69 169.9-154.9 208.4-189 5.9-5.2 13.4-8 21-8 7.8 0 15.2 2.9 21 8 27.9 24.8 85.6 77.4 146.8 133.3 60 54.7 122.1 111.4 158.4 143.8 56.5 46.9 89.1 117.1 89.4 192.5C927.3 532.1 920.8 565.5 907.8 596.8z"  horiz-adv-x="1024" />

    
    <glyph glyph-name="classify" unicode="&#58953;" d="M130.588416 353.28 130.588416 281.6l235.52 0 0 74.24 87.04 0c0 0 35.84 0 35.84-35.84s0-399.36 0-399.36 5.12-46.08-46.08-46.08S46.108416-128 46.108416-128 0.028416-128 0.028416-81.92c0 58.88 0 396.8 0 396.8s-2.56 38.4 40.96 38.4S130.588416 353.28 130.588416 353.28zM675.868416 353.28 675.868416 281.6l235.52 0 0 74.24L998.428416 355.84c0 0 35.84 0 35.84-35.84s0-399.36 0-399.36 5.12-46.08-46.08-46.08c-48.64 0-396.8 0-396.8 0s-46.08-2.56-46.08 46.08c0 58.88 0 396.8 0 396.8s-2.56 38.4 40.96 38.4S675.868416 353.28 675.868416 353.28zM675.868416 896l0-74.24 235.52 0L911.388416 896 998.428416 896c0 0 35.84 0 35.84-35.84s0-399.36 0-399.36 5.12-46.08-46.08-46.08c-48.64 0-396.8 0-396.8 0s-46.08-2.56-46.08 46.08c0 58.88 0 396.8 0 396.8S542.748416 896 583.708416 896 675.868416 896 675.868416 896z"  horiz-adv-x="1035" />

    
    <glyph glyph-name="yunmabibei" unicode="&#59008;" d="M419.84 602.112c0-13.312 8.192-25.6 17.408-33.792 11.264-10.24 27.648-16.384 43.008-14.336 4.096 1.024 6.144 5.12 5.12 9.216-1.024 4.096-5.12 6.144-9.216 5.12 3.072 1.024 0 0-1.024 0-2.048 0-4.096 0-7.168 1.024-8.192 1.024-15.36 5.12-21.504 11.264-5.12 4.096-8.192 10.24-10.24 16.384 0 1.024-1.024 2.048-1.024 3.072 0 0 0 3.072 0 1.024 0 1.024 0 1.024 0 2.048C435.2 611.328 419.84 611.328 419.84 602.112L419.84 602.112zM520.192 538.624c0-13.312 8.192-25.6 17.408-33.792 11.264-10.24 27.648-16.384 43.008-14.336 4.096 1.024 6.144 5.12 5.12 9.216-1.024 4.096-5.12 6.144-9.216 5.12 3.072 1.024 0 0-1.024 0-2.048 0-4.096 0-7.168 1.024C560.128 506.88 552.96 510.976 546.816 517.12c-5.12 4.096-8.192 10.24-10.24 16.384 0 1.024-1.024 2.048-1.024 3.072 0 0 0 3.072 0 1.024 0 1.024 0 1.024 0 2.048C535.552 547.84 520.192 547.84 520.192 538.624L520.192 538.624zM879.616 129.024c-6.144-8.192-16.384-12.288-28.672-12.288-12.288 0-22.528 7.168-28.672 18.432-11.264 21.504-10.24 61.44 25.6 112.64 59.392 83.968 18.432 166.912-10.24 207.872-5.12 7.168-10.24 13.312-14.336 19.456-18.432 23.552-36.864 46.08-36.864 99.328C785.408 702.464 728.064 783.36 624.64 801.792c-20.48 6.144-40.96 9.216-61.44 9.216C444.416 811.008 348.16 714.752 348.16 596.992c0-65.536 29.696-126.976 80.896-167.936l4.096-3.072-2.048-4.096c-17.408-44.032-64.512-125.952-179.2-172.032C173.056 216.064 121.856 138.24 121.856 52.224c0-25.6 4.096-50.176 13.312-72.704l22.528 0 475.136 0c34.816 0 63.488 28.672 63.488 63.488l0 37.888 11.264-13.312c15.36-19.456 44.032-41.984 89.088-41.984 19.456 0 41.984 4.096 64.512 13.312 32.768 12.288 46.08 46.08 48.128 73.728 2.048 24.576-5.12 46.08-18.432 59.392C889.856 157.696 888.832 140.288 879.616 129.024zM653.312 71.68c0-10.24-4.096-19.456-11.264-27.648-7.168-7.168-17.408-11.264-26.624-11.264L165.888 32.768l0 6.144c0 3.072 0 6.144 0 9.216 0 76.8 49.152 144.384 122.88 166.912 112.64 46.08 163.84 133.12 184.32 180.224l2.048 5.12 5.12-2.048c31.744-13.312 65.536-18.432 101.376-15.36L593.92 384l-5.12-10.24c-29.696-58.368-105.472-167.936-283.648-246.784l-6.144-3.072c-1.024-1.024-2.048-1.024-3.072-2.048-1.024-1.024-1.024-1.024-2.048-1.024l-1.024-1.024c-3.072-4.096-5.12-8.192-6.144-13.312 0-1.024 0-2.048 0-3.072l-6.144-1.024 0 0 6.144 0c0 0 0 0 0 0l0 0 0 0c0 0 0 0 0 0 0-2.048 0-3.072 0-4.096l0-1.024c0-1.024 1.024-2.048 1.024-3.072 0-1.024 1.024-2.048 1.024-3.072l0-1.024c2.048-4.096 6.144-8.192 10.24-10.24l1.024-1.024c9.216-5.12 19.456-4.096 26.624 1.024l2.048 1.024c88.064 39.936 251.904 145.408 309.248 289.792l12.288 29.696L650.24 71.68zM700.416 480.256c-34.816-40.96-83.968-63.488-137.216-63.488-99.328 0-180.224 80.896-180.224 180.224 0 21.504 4.096 41.984 10.24 61.44l3.072 8.192 7.168-6.144c35.84-30.72 80.896-35.84 130.048-16.384l7.168 3.072 1.024-7.168C542.72 633.856 566.272 504.832 696.32 490.496l11.264-1.024L700.416 480.256z"  horiz-adv-x="1024" />

    
    <glyph glyph-name="woman" unicode="&#59203;" d="M260.8 374.4c-14.4-14.4 1.6-38.4 11.2-52.8 11.2-14.4 14.4-17.6 9.6-36.8-6.4-28.8 51.2-51.2 56-52.8-4.8 3.2-48 25.6-40 54.4 4.8 16 36.8 43.2 40 54.4 3.2 11.2-11.2 25.6-16 35.2-3.2 6.4 11.2 19.2 22.4 28.8 6.4-8 12.8-14.4 20.8-20.8 41.6-46.4 102.4-65.6 145.6-65.6 0 0 1.6 0 1.6 0 44.8 0 91.2 19.2 126.4 48 9.6 6.4 19.2 14.4 28.8 24 3.2-6.4 9.6-12.8 16-22.4 14.4-17.6-4.8-19.2-11.2-35.2-6.4-16-3.2-20.8 19.2-33.6 20.8-11.2 24-12.8 27.2-33.6 3.2-17.6-16-32-19.2-35.2 4.8 3.2 33.6 22.4 35.2 38.4 3.2 19.2-14.4 25.6-16 40-1.6 14.4 14.4 16 25.6 33.6 9.6 16 0 22.4-9.6 36.8-8 14.4-1.6 16 0 33.6 1.6 17.6 54.4 102.4 57.6 193.6 0 1.6 0 4.8 0 6.4 0 22.4-4.8 44.8-11.2 65.6-24 70.4-68.8 124.8-89.6 148.8-28.8 32-104 64-112 65.6-8 3.2-38.4-8-67.2-1.6-28.8 6.4-99.2 12.8-171.2-54.4-40-38.4-64-70.4-81.6-116.8-8-24-14.4-48-17.6-68.8-4.8-25.6-8-48-8-60.8 0-40 41.6-155.2 46.4-171.2C284.8 404.8 275.2 388.8 260.8 374.4zM334.4 563.2c3.2 20.8 46.4 59.2 76.8 86.4 8 6.4 16 12.8 22.4 17.6 14.4 12.8 28.8 27.2 40 43.2 17.6 24 30.4 48 38.4 60.8 0 0-14.4-44.8-19.2-54.4-1.6-3.2-1.6-4.8-3.2-8-11.2-22.4-27.2-36.8-30.4-40 4.8 3.2 36.8 22.4 56 38.4 1.6 1.6 3.2 1.6 4.8 3.2 17.6 16 33.6 40 35.2 44.8C552 752 544 729.6 555.2 704c3.2-6.4 6.4-12.8 11.2-19.2 11.2-16 41.6-33.6 48-38.4-4.8 3.2-20.8 17.6-22.4 43.2 0 3.2 0 6.4-1.6 9.6-1.6 9.6-3.2 24-3.2 25.6 1.6-3.2 4.8-14.4 11.2-27.2 6.4-14.4 16-30.4 25.6-40 9.6-9.6 19.2-22.4 28.8-32 11.2-12.8 19.2-24 24-28.8 28.8-27.2 9.6-88 9.6-100.8 0-3.2-1.6-9.6-1.6-14.4-9.6-38.4-35.2-68.8-67.2-91.2-30.4-25.6-70.4-40-105.6-41.6 0 0-1.6 0-1.6 0-38.4 0-89.6 19.2-121.6 56-14.4 12.8-27.2 27.2-35.2 44.8 0 0 0 0 0 1.6C342.4 476.8 329.6 536 334.4 563.2zM600 315.2c-1.6-12.8-22.4-68.8-22.4-68.8s-48-59.2-54.4-76.8l-9.6 0-11.2 0c-6.4 17.6-54.4 76.8-54.4 76.8s-20.8 56-22.4 68.8c0 0-6.4-11.2-11.2-25.6-3.2-8-14.4-17.6-17.6-27.2-11.2-27.2 16-112 19.2-132.8 3.2-20.8 1.6-6.4 16 9.6 9.6 9.6 32 16 49.6 19.2l16-56 19.2-65.6 19.2 65.6 16 56c17.6-3.2 40-9.6 48-19.2 14.4-16 11.2-28.8 16-9.6 3.2 20.8 30.4 105.6 19.2 132.8-4.8 9.6-14.4 19.2-17.6 27.2C606.4 304 600 315.2 600 315.2zM758.4 158.4c-8 12.8-19.2 25.6-30.4 36.8-9.6 9.6-19.2 17.6-30.4 25.6-1.6 1.6-4.8 3.2-6.4 4.8-3.2 1.6-6.4 3.2-8 4.8-1.6 1.6-4.8 3.2-6.4 4.8-1.6 1.6-3.2 1.6-4.8 3.2l-1.6 1.6c0 0 0 0-1.6 0-1.6 1.6-4.8 3.2-6.4 3.2-3.2 1.6-4.8 3.2-9.6 4.8-27.2-107.2-65.6-265.6-78.4-332.8-12.8-3.2-12.8-4.8-27.2-6.4L512-94.4l-36.8 4.8c-14.4 1.6-12.8 3.2-27.2 6.4-12.8 65.6-51.2 224-78.4 332.8-3.2-1.6-6.4-3.2-9.6-4.8-1.6-1.6-4.8-3.2-6.4-3.2 0 0-1.6 0-1.6 0l-1.6-1.6c-1.6-1.6-3.2-1.6-4.8-3.2-1.6-1.6-4.8-3.2-6.4-4.8-3.2-1.6-6.4-3.2-8-4.8-1.6-1.6-4.8-3.2-6.4-4.8-11.2-6.4-20.8-16-30.4-25.6-11.2-11.2-20.8-22.4-30.4-36.8-17.6-20.8-38.4-43.2-57.6-68.8 11.2-28.8 19.2-33.6 32-44.8 11.2-8 22.4-14.4 35.2-19.2 3.2-1.6 8-3.2 11.2-6.4 6.4-6.4 11.2-12.8 12.8-22.4 3.2-11.2 8-22.4 12.8-32 4.8-8 6.4-11.2 12.8-20.8l3.2-4.8 3.2-4.8c3.2-4.8 3.2-6.4 8-9.6 4.8-4.8 20.8-14.4 20.8-14.4 51.2-30.4 88-36.8 148.8-36.8 60.8 0 97.6 6.4 148.8 36.8 0 0 16 9.6 20.8 14.4 4.8 4.8 4.8 4.8 8 9.6l3.2 4.8 3.2 4.8c6.4 9.6 9.6 12.8 12.8 20.8 6.4 9.6 9.6 20.8 12.8 32 1.6 8 6.4 16 12.8 22.4 3.2 3.2 8 4.8 11.2 6.4 12.8 4.8 24 11.2 35.2 19.2 14.4 11.2 22.4 16 32 44.8C795.2 113.6 776 137.6 758.4 158.4z"  horiz-adv-x="1024" />

    
    <glyph glyph-name="set1" unicode="&#58905;" d="M841.4 475.4c-7.6 27.4-18.6 53.4-32.3 77.5 15.7 21.1 69.7 100 30.8 139l-20 21.1c-33.3 33.3-118.4-18.7-139-32.2-24.4 13.8-50.7 24.8-78.4 32.3-4.5 26.5-24 118.9-78.8 118.9h-21.9c-47.1 0-74.1-95.5-80.1-119.5-27.3-7.6-53.2-18.7-77.3-32.5-19 14.1-100.5 70.5-140.3 30.7l-21.1-17.7c-34.7-34.7 22.9-126.1 33.5-142.1-13.3-23.8-24-49.2-31.4-76.1-23-3.7-121.1-22.6-121.1-79v-21.9c0-48.9 102.9-76.1 121.7-80.6 7.5-26.7 18.2-51.9 31.6-75.5-11.1-17.4-66.4-108.4-32.1-142.7l20-16.6c45.2-45.2 139.6 29.1 139.6 29.1l-4.4 4.7c25.1-14.8 52.2-26.5 80.8-34.6 4.7-19.3 31.8-121.5 80.6-121.5h21.9c63.9 0 79.8 119.3 79.8 119.3l-5.9 0.2c29 7.4 56.4 18.5 81.9 32.8 20-13.3 103.6-65.6 137-32.3l22.2 22.2c44.6 44.6-28 135.8-30 138.3 13.8 24.1 24.8 50 32.4 77.4 24.9 6.3 118.8 33.2 118.8 79.9v21.9c0.1 61.8-111.5 78.5-118.5 79.5zM512.1 127.9c-141.4 0-256 114.6-256 256s114.6 256 256 256 256-114.6 256-256-114.6-256-256-256zM512.1 576c-106.1 0-192.1-86-192.1-192.1s86-192.1 192.1-192.1 192.1 86 192.1 192.1-86 192.1-192.1 192.1zM512.1 255.8c-70.8 0-128.1 57.4-128.1 128.1s57.4 128.1 128.1 128.1c70.8 0 128.1-57.4 128.1-128.1s-57.3-128.1-128.1-128.1z"  horiz-adv-x="1024" />

    
    <glyph glyph-name="xiangguantuijian" unicode="&#58890;" d="M140.96 835.201v-931.201l372.48 157.44 372.48-157.44v931.201h-744.962zM318.079 580.8v33.6c22.559-1.44 40.8-1.919 55.679-1.919h56.161c0 12.477-0.48 26.88-1.919 43.2h37.44v-0.48h0.48c-1.44-16.322-1.919-30.24-1.919-42.721h108.481c0 12.477-0.48 26.4-1.919 42.721v0.48h37.44v-0.48c-1.44-16.322-1.919-30.24-1.919-42.721h58.082c14.88 0 35.52 0.48 61.923 1.919v-34.080c-24.961 1.44-45.6 1.919-61.923 1.919h-58.082c0-6.24 0.48-18.24 1.919-35.039v-0.48h-37.44v0.48c1.44 14.4 1.923 26.4 1.923 35.041h-108.481c0-8.64 0.48-20.639 1.923-35.041h-0.48v-0.48h-37.44c1.44 16.322 1.923 27.84 1.923 35.52h-55.679c-13.441 0-32.639-0.48-56.161-1.919v0.48zM395.84 224.159v164.64c-24-24.961-47.039-45.6-70.559-63.362h-0.48c-7.679 11.040-17.282 22.559-28.32 33.6 25.92 13.441 51.361 31.681 75.839 54.239s46.56 46.56 66.72 72.959h-57.6c-16.322 0-36.963-0.48-61.919-1.923h-0.48v33.6h0.48c22.561-1.44 41.281-1.919 56.161-1.919h82.080c8.64 15.36 16.318 30.719 22.559 47.041h0.48c3.36-1.919 7.202-3.84 10.56-5.28 0.959-0.48 1.919-0.48 2.4-0.959 2.88-0.962 5.28-2.4 8.16-3.36 0.48 0 1.44-0.48 1.919-0.48 7.197-2.4 14.4-4.8 21.595-6.24-11.040-8.64-20.158-18.72-26.4-29.76h147.841c20.158 0 42.721 0.48 67.68 1.919h0.48v-33.6h-0.48c-2.4 0-4.8 0.48-7.679 0.48h-3.36c-4.8 0-9.601 0.48-13.92 0.48h-4.8c-3.36 0-6.72 0-9.601 0.48h-192.48c-14.88-18.72-31.681-39.36-50.398-61.919l0.288-200.639h-36.767zM728.48 335.040h-0.48v-0.959c-21.601 1.44-44.161 1.923-67.68 1.923h-46.56v-70.080c0-8.64-1.44-15.36-4.8-20.641-2.88-5.28-7.202-9.597-13.439-12-12-4.8-33.12-8.64-62.881-11.040 0 10.080-5.761 23.041-16.8 39.36h0.959c0 0.48-0.48 0.48-0.48 0.962 22.559-1.44 37.921-1.919 47.039-1.919 5.761 0 10.080 2.4 12.481 7.202 1.44 3.36 1.923 7.202 1.923 12.477v56.159h-71.038c-16.322 0-33.6-0.48-52.32-1.919v33.6h0.48v0.959c18.72-1.44 36.963-1.919 54.239-1.919h67.201c0 7.202-0.48 15.36-1.919 23.52 0 0 0.48 0 0.48 0.48v0.48c16.8 7.679 32.639 16.318 47.519 27.36h-87.36c-18.72 0-38.88-0.48-60-1.919v33.6h0.48v0.959c21.121-1.44 42.721-1.919 63.841-1.919h159.361v-29.76h-0.48v-0.959c-13.92-2.4-27.36-7.197-40.321-13.92-13.439-7.197-27.36-15.36-43.683-24.961v-12.481h47.039c22.561 0 45.119 0.48 67.68 1.919l-0.48-34.562z"  horiz-adv-x="1024" />

    
    <glyph glyph-name="collect" unicode="&#58898;" d="M286.433 236.629c-23.804 0.035-43.092 19.326-43.121 43.128v310.029c0.029 23.803 19.318 43.092 43.118 43.121h87.207c11.52 0 22.344-4.485 30.495-12.626l23.224-23.224h201.073c23.802-0.023 43.092-19.309 43.121-43.108v-8.983l1.741-275.825-0.358-1.331c-4.982-18.087-21.277-31.155-40.627-31.171h-345.872zM929.427 622.46v18.266c0 36.862-29.994 66.851-66.875 66.851h-417.569l-53.337 53.337c-12.038 12.093-28.699 19.578-47.105 19.578-0.066 0-0.135 0-0.205 0h-177.346c-36.918-0.033-66.838-29.954-66.875-66.871v-630.526c0.033-36.925 29.953-66.848 66.868-66.897h703.439c29.772 0.023 54.85 20.135 62.395 47.516l-3.396 558.741zM481.708 326.913l-73.806-38.79 14.096 82.17-59.711 58.21 82.516 11.97 36.901 74.791 36.901-74.791 82.5-11.97-59.693-58.21 14.096-82.17zM503.668 424.193l6.807-13.795 15.221-2.211-11.016-10.728 2.602-15.159-13.613 7.154-13.614-7.154 2.602 15.159-11.016 10.728 15.221 2.211z"  horiz-adv-x="1024" />

    
    <glyph glyph-name="classify1" unicode="&#58903;" d="M440.408475 805.61648H109.311615c-10.450003 0-18.919908-8.676613-18.919909-19.379373v-339.15028c0-10.70276 8.470929-19.379373 18.919909-19.379373h331.09686c10.450003 0 18.919908 8.677637 18.919908 19.379373V786.236084c-0.001023 10.704806-8.469905 19.380396-18.919908 19.380396zM440.408475 340.294592H109.311615c-10.450003 0-18.919908-8.676613-18.919909-19.380396V-18.235061c0-10.70276 8.470929-19.380396 18.919909-19.380396h331.09686c10.450003 0 18.919908 8.67866 18.919908 19.380396V320.91215c-0.001023 10.705829-8.469905 19.382443-18.919908 19.382442zM739.507574 434.127677a13.390985 13.390985 0 0 1 19.263739 0l168.568207 172.666549c5.320169 5.449106 5.320169 14.284331 0 19.733436L758.771313 799.19421a13.395078 13.395078 0 0 1-19.264762 0L570.94039 626.527662c-5.320169-5.450129-5.320169-14.283308 0-19.732413L739.507574 434.127677zM914.686339 340.294592H583.591525c-10.450003 0-18.919908-8.676613-18.919908-19.380396V-18.235061c0-10.70276 8.470929-19.380396 18.919908-19.380396H914.686339c10.450003 0 18.920932 8.67866 18.920931 19.380396V320.91215c0.001023 10.705829-8.470929 19.382443-18.920931 19.382442z"  horiz-adv-x="1024" />

    
    <glyph glyph-name="baby" unicode="&#58954;" d="M852.579618 554.695109c0 197.786184-143.518707 341.304891-341.304891 341.304891s-341.304891-143.518707-341.262228-339.001083c-0.383968-7.423381-9.215232-184.304641 43.857678-396.638947C268.47896-57.861845 340.750271-127.914674 511.274727-127.914674s242.795767 70.052829 297.361887 288.274644c53.115574 212.334305 44.28431 389.215565 43.943004 394.335139z m-138.313807-416.434631l-139.03908 69.498209 169.841847 63.696025a1242.989751 1242.989751 0 0 0-30.802767-133.194234zM255.296059 554.695109c0 148.339638 107.63903 255.978668 255.978668 255.978668s255.978668-107.63903 256.021332-258.239813c0.042663-1.109241 3.583701-76.281643-8.36197-184.603283l-287.933339-107.937672-206.958753 103.458045c-12.500292 110.92409-8.831264 188.656279-8.745938 191.344055z m255.978668-597.28356c-112.758603 0-163.698358 20.222315-214.59545 223.682693a1315.474377 1315.474377 0 0 0-17.150571 79.140072l405.768853-202.863095C644.468961-31.282726 594.851762-42.588451 511.274727-42.588451zM511.274727 341.379552c117.622198 0 213.315557 95.693359 213.315557 213.315557s-95.693359 213.315557-213.315557 213.315557-213.315557-95.693359-213.315557-213.315557 95.736022-213.315557 213.315557-213.315557z m0 341.304891c70.564786 0 127.989334-57.424548 127.989334-127.989334s-57.424548-127.989334-127.989334-127.989334-127.989334 57.424548-127.989334 127.989334 57.424548 127.989334 127.989334 127.989334zM511.274727 512.031997m-42.663111 0a42.663111 42.663111 0 1 1 85.326223 0 42.663111 42.663111 0 1 1-85.326223 0Z"  horiz-adv-x="1024" />

    
    <glyph glyph-name="pay1" unicode="&#58885;" d="M1084.149031 291.752556L646.803247-93.322515a154.089966 154.089966 0 0 0-194.073441-0.499481L15.533867 290.753593A62.360234 62.360234 0 0 0 0 331.785978a62.435156 62.435156 0 0 0 45.502742 60.112569s6.293464 2.472432 15.458945 2.472432H189.802876V795.604268C189.802876 853.344301 233.008004 896 290.273529 896h518.336669C865.85075 896 909.055878 853.319327 909.055878 795.604268v-401.258263h126.393731c0.424559 0 0.79917 0.12487 1.223729 0.12487s0.824144-0.12487 1.223729-0.12487h1.448495l0.074923-0.149844a62.33526 62.33526 0 0 0 44.728546-102.443605zM689.284127 464.348302c22.901215 0 36.387209 17.856455 36.387209 40.932489s-13.485994 39.359123-36.387209 39.359123l-88.183415 0.024974 91.105381 92.02942a42.306062 42.306062 0 0 1 0 59.513191 41.531866 41.531866 0 0 1-59.038684 0l-84.437306-85.111605-84.087669 84.786943a41.606788 41.606788 0 0 1-59.063658 0 42.306062 42.306062 0 0 1 0-59.513192l91.005484-91.729731-87.009634 0.024974c-22.901215 0-36.387209-16.308063-36.387209-39.384097 0-23.076034 13.485994-40.932489 36.387209-40.932489H499.481252v-50.197865h-89.906626c-22.901215 0-36.387209-14.934489-36.387209-38.035498 0-23.076034 13.485994-42.256114 36.387209-42.256114H499.481252v-60.237439c0-28.845042 21.327849-50.197866 49.948125-50.197865s49.948125 21.352824 49.948125 50.197865v60.237439h92.478954c22.901215 0 33.814881 15.408997 33.81488 38.485031 0 30.043797-15.933452 41.831555-38.834667 41.831555H599.377502v50.197865l89.906625-0.024974z"  horiz-adv-x="1098" />

    
    <glyph glyph-name="uicon_shopping" unicode="&#58996;" d="M152 744v-109.68l-90-120v-10.32c0-49.35 40.65-90 90-90v-390h480v270h60v-270h180v390c49.35 0 90 40.65 90 90v10.32l-5.64 7.5-84.36 112.5v109.68h-720zM212 684h600v-30h-600v30zM197 594h630l72.18-96.57c-3.3-13.020-13.11-23.43-27.18-23.43-16.65 0-30 13.35-30 30h-60c0-16.65-13.35-30-30-30s-30 13.35-30 30h-60c0-16.65-13.35-30-30-30s-30 13.35-30 30h-60c0-16.65-13.35-30-30-30s-30 13.35-30 30h-60c0-16.65-13.35-30-30-30s-30 13.35-30 30h-60c0-16.65-13.35-30-30-30s-30 13.35-30 30h-60c0-16.65-13.35-30-30-30-14.1 0-23.91 10.41-27.18 23.43l72.18 96.57zM212 437.43c15.808-14.492 36.952-23.387 60.174-23.431 22.836 0.001 43.836 9.001 59.826 23.431 15.808-14.492 36.952-23.387 60.174-23.431 22.836 0.001 43.836 9.001 59.826 23.431 15.808-14.492 36.953-23.387 60.174-23.431 22.836 0.001 43.836 9.001 59.826 23.431 15.808-14.492 36.953-23.387 60.174-23.431 22.836 0.001 43.836 9.001 59.826 23.431 15.808-14.492 36.952-23.387 60.174-23.431 22.836 0.001 43.836 9.001 59.826 23.431v-353.43h-60v270h-180v-270h-360v353.43zM272 354v-210h240v210h-240zM332 294h120v-90h-120v90z"  horiz-adv-x="1024" />

    
    <glyph glyph-name="pay2" unicode="&#58909;" d="M943.957 464.915L590.084 799.991c-21.556 18.852-48.991 30.14-78.761 30.14-29.6 0-56.764-11.178-78.218-29.656L79.387 465.779c-7.725-9.58-12.575-21.931-12.575-35.733 0-25.039 15.62-45.893 36.817-52.231 0 0 5.101-2.163 12.506-2.163h104.251v-349.158c0-50.187 34.999-87.349 81.256-87.349h419.361c46.338 0 81.256 37.162 81.256 87.349V375.651h102.256c0.359 0 0.705-0.08 0.956-0.08 0.388 0 0.699 0.08 0.984 0.08h1.222l0.079 0.117c26.738 1.29 48.091 25.01 48.091 54.277-0.013 13.348-4.612 25.413-11.89 34.87zM626.548 198.401h-74.854v-52.452c0-25.068-17.289-43.635-40.371-43.635-23.169 0-40.37 18.566-40.37 43.635v52.452h-72.759c-18.496 0-29.417 16.669-29.417 36.781 0 20.083 10.921 33.115 29.417 33.115h72.759v43.656h-72.759c-18.496 0-29.417 15.496-29.417 35.595 0 20.083 10.921 34.231 29.417 34.231h70.412l-73.68 79.762c-13.226 14.265-13.226 37.493 0 51.808 13.192 14.256 34.537 14.256 47.743 0l68.03-73.767 68.336 74.03c13.22 14.293 34.571 14.293 47.743 0 13.186-14.256 13.186-37.515 0-51.748l-73.618-80.085h71.36c18.496 0 29.442-14.148 29.442-34.231 0-20.099-10.946-35.595-29.442-35.595h-72.759v-43.656h70.689c18.497 0 31.419-10.232 31.419-36.414 0-20.039-8.75-33.482-27.321-33.482z"  horiz-adv-x="1024" />

    
    <glyph glyph-name="shopping-cart" unicode="&#58910;" d="M353 129c-51 0-90-39-90-90s42-90 90-90 90 39 90 90c3 48-39 90-90 90zM758 126c-51 0-90-39-90-90s42-90 90-90c51 0 90 39 90 90s-39 90-90 90zM923 678h-666s-9 69-15 90c-3 18-12 54-63 54h-99c-30 0-48-21-48-45s12-69 51-69h72s81-432 87-462c9-39 27-93 78-93h510c36 0 45 21 45 48 0 24-15 39-48 39h-489l-15 87h510c39 0 63 18 78 69 18 51 66 186 75 210 12 27 9 72-63 72z"  horiz-adv-x="1024" />

    
    <glyph glyph-name="shopping-wicket" unicode="&#58911;" d="M988.8 524.8l-44.8 246.4c-6.4 35.2-35.2 60.8-73.6 60.8h-723.2c-32 0-60.8-25.6-67.2-60.8l-44.8-246.4c-9.6-44.8 12.8-92.8 60.8-121.6v-403.2c0-35.2 28.8-64 67.2-64h697.6c35.2 0 67.2 28.8 67.2 64v403.2c48 28.8 67.2 76.8 60.8 121.6M860.8 195.2c0-19.2-16-32-32-32h-633.6c-19.2 0-32 12.8-32 32v176c9.6-3.2 19.2-3.2 32-3.2 86.4 0 160 70.4 160 153.6 0-86.4 70.4-153.6 160-153.6 86.4 0 156.8 67.2 160 150.4 3.2-83.2 73.6-150.4 160-150.4 9.6 0 19.2 0 32 3.2v-176z"  horiz-adv-x="1024" />

    
    <glyph glyph-name="PhoneManagement" unicode="&#58901;" d="M984.491 507.733l0.085 0.043-0.341 0.299c-1.203 1.902-2.951 3.363-5.024 4.182l1.653-0.939c-48.128 47.957-106.155 82.901-144.299 102.869-51.627 28.672-161.067 75.435-325.589 75.264-123.307 0.128-215.381-26.069-275.755-51.371l0.043 0.128s-3.115-1.323-8.32-3.669c-25.728-11.264-44.928-21.931-57.6-29.781-36.992-21.333-83.371-52.48-122.667-92.459l-2.176-1.579c-13.013-9.941-14.933-30.379-4.181-45.824l72.661-106.112c10.709-15.275 29.995-19.712 43.093-9.984l112.213 86.741c11.093 8.32 20.608 24.405 16.64 38.443h0.085l-12.416 63.061c98.773 53.248 154.112 53.12 238.379 52.779 84.736 0.299 140.203 0.469 239.957-53.547l-13.44-60.715h0.043c-5.12-14.421 4.651-31.36 16.256-40.021l112.256-86.741c13.056-9.728 32.299-5.291 43.051 9.984l72.704 106.112c4.098 5.979 6.644 13.309 6.912 21.216 1.195 10.784-1.664 17.909-4.224 21.621zM806.016 242.944c-2.091 32.427-11.605 49.92-11.605 49.92l-13.227 18.219-111.616 171.008c-1.594 2.709-3.671 4.962-6.133 6.709l3.999-3.467-0.128-0.085c-9.464 12.865-24.532 21.129-41.533 21.163l-229.571-0c-18.816 0-35.115-10.197-44.203-25.344l-0.171 0.213-89.728-158.123-19.029-30.293s-7.253-8.832-7.253-52.309v-107.563c0-28.843 23.253-54.485 51.883-54.485h466.432c28.715 0 51.968 25.685 51.968 54.485v107.563c0 0.555-0.171 0.896-0.171 1.408 0 0.427 0.128 0.683 0.085 0.981zM511.019 239.36c-85.888 0-117.717 36.309-117.717 79.573 0 43.307 31.829 78.251 117.717 78.251 85.931 0 123.563-34.944 123.563-78.251 0-43.264-37.675-79.573-123.563-79.573z"  horiz-adv-x="1024" />

    
    <glyph glyph-name="total" unicode="&#59171;" d="M1002.564267 837.870933v-618.120533s0-0.6144-0.6144-0.6144a222.890667 222.890667 0 0 1-101.102934 52.667733 24.302933 24.302933 0 0 1-9.079466 1.8432 234.496 234.496 0 0 1-87.176534 0H329.386667a34.474667 34.474667 0 1 1 0-69.0176h349.320533v-0.6144a230.741333 230.741333 0 0 1-61.166933-156.808533c0-55.7056 20.002133-109.568 56.9344-151.3472v-0.6144H57.514667A57.890133 57.890133 0 0 0 0-47.240533V837.870933C0 869.376 26.043733 895.3856 57.514667 895.3856h887.534933c31.470933 0 57.514667-25.429333 57.514667-57.514667z m0-616.891733V838.485333A57.002667 57.002667 0 0 1 945.0496 895.3856H57.514667A57.344 57.344 0 0 1 0 838.485333v-884.497066a57.002667 57.002667 0 0 1 57.514667-56.9344h616.311466v0.6144a230.741333 230.741333 0 0 0-56.32 151.3472c0 53.282133 18.773333 105.949867 52.701867 147.114666v0.6144h-0.6144a232.823467 232.823467 0 0 1-52.667733-147.114666c0-55.7056 19.968-108.987733 56.32-151.3472H57.480533a56.7296 56.7296 0 0 0-56.900266 56.32V837.8368c0 30.890667 25.429333 56.32 56.900266 56.32h887.534934c31.470933 0 56.900267-25.429333 56.900266-56.32v-616.311467a228.898133 228.898133 0 0 1-100.488533 52.087467 24.302933 24.302933 0 0 1-9.079467 1.809067 237.7728 237.7728 0 0 1-87.790933 0v-0.6144h0.6144a234.496 234.496 0 0 0 87.176533 0c3.037867 0 6.0416-1.194667 9.079467-1.809067 36.932267-8.465067 71.441067-26.624 101.102933-52.053333-0.6144-0.6144-0.6144-0.6144 0 0-0.6144-0.6144 0 0 0 0z m-78.097067 328.123733a35.157333 35.157333 0 0 1-35.1232 35.1232H329.386667a35.157333 35.157333 0 0 1 0-70.2464h559.991466a35.157333 35.157333 0 0 1 35.1232 35.1232z m0-154.385066a35.157333 35.157333 0 0 1-35.1232 35.1232H329.386667a35.157333 35.157333 0 0 1 0-70.2464h559.991466a35.157333 35.157333 0 0 1 35.1232 35.1232z m-0.6144 308.770133a35.157333 35.157333 0 0 1-35.089067 35.089067H328.704a35.157333 35.157333 0 0 1 0-70.212267h560.0256a35.157333 35.157333 0 0 1 35.089067 35.1232zM218.555733 549.102933a35.157333 35.157333 0 0 1-35.1232 35.1232H113.220267a35.157333 35.157333 0 0 1 0-70.2464h70.212266a35.157333 35.157333 0 0 1 35.1232 35.1232z m0-308.770133a35.157333 35.157333 0 0 1-35.1232 35.1232H113.220267a35.157333 35.157333 0 0 1 0-70.2464h70.212266a35.157333 35.157333 0 0 1 35.1232 35.157333z m-0.6144 154.385067a34.474667 34.474667 0 0 1-34.474666 34.5088H113.186133a34.474667 34.474667 0 1 1 0-69.0176h70.212267a34.474667 34.474667 0 0 1 34.5088 34.5088z m0 308.770133a35.157333 35.157333 0 0 1-35.1232 35.089067H112.64a35.157333 35.157333 0 0 1 0-70.212267h70.212267a35.157333 35.157333 0 0 1 35.157333 35.1232zM836.676267 240.3328a175.957333 175.957333 0 0 0 176.196266-176.162133 175.957333 175.957333 0 0 0-176.196266-176.196267 175.957333 175.957333 0 0 0-176.162134 176.196267 175.957333 175.957333 0 0 0 176.162134 176.162133z m123.733333-128.989867l-16.2816 16.657067-115.029333-117.6576-73.250134 74.888533-16.2816-16.657066 89.565867-91.613867 16.315733 16.657067-0.1024 0.068266 115.063467 117.6576z"  horiz-adv-x="1024" />

    
    <glyph glyph-name="ico-pregnant" unicode="&#59018;" d="M920.448 127.072c-18.528 70.144-121.6 116.608-168.608 134.432 13.536 13.088 31.2 31.84 40.416 48.352a28.736 28.736 0 0 1 1.952 23.264c-4.928 15.264-21.312 31.36-51.552 50.656a614.88 614.88 0 0 1-66.272 35.872c-16.736 7.808-36.768 24.928-53.664 45.792-16.288 20.128-26.976 40.768-27.936 53.824-1.184 16.48 5.824 31.904 11.776 41.76 16.928-12.928 40.96-30.336 51.616-33.312 18.624-5.248 32.096 5.824 34.688 8.192a229.76 229.76 0 0 1 78.176 150.496c4.96 46.656-4.192 89.312-15.456 110.912-10.624 20.352-30.08 38.816-35.2 43.488-7.168 9.44-46.88 56.416-126.656 54.112-40.832-1.184-80.992-18.272-113.088-48.16-30.112-28.032-51.104-64.832-59.136-103.68-13.248-64.064-26.336-70.976-89.248-104.32l-1.696-0.896c-27.424-14.528-84.512-44.768-134.112-84.416-59.168-47.264-93.44-96.256-101.92-145.6-11.616-67.648 2.4-134.272 44.736-189.536 32.864-42.944 48.192-51.84 66.112-65.408 27.776-20.992 69.824-41.152 103.776-56.512 0 0-0.256 47.488 2.816 44.384 44.544-45.376 102.816-100.544 124.64-121.056-15.84-31.872-29.44-59.552-34.56-85.664-4.8-24.32-2.944-41.216 5.6-51.712 5.568-6.816 12.928-9.28 18.08-9.344h351.904l2.528 0.992c74.72 29.44 119.008 62.752 139.392 104.896 18.144 37.504 18.4 81.824 0.864 148.192z m-470.528-80.32c-64.256 60.64-158.88 152.96-167.424 169.664-13.504 26.432-17.632 46.72 1.248 72.352 12.032 16.352 49.024 60.544 92.512 109.408 3.392-22.24 14.688-46.752 28.32-69.952-5.888-5.536-17.248-16.416-28.704-28.832-31.712-34.24-35.808-48.96-35.808-57.952 0-20.352 20.064-40.192 41.312-61.184 9.12-9.024 17.76-17.536 23.008-24.576 16.64-22.24 56.256-72 60.224-76.96-4.704-10.976-9.664-21.6-14.688-32z m34.112 80.192c-2.048-4.992-4.448-10.816-7.072-17.408a3789.952 3789.952 0 0 0-49.472 63.424c-6.56 8.768-15.904 18.016-25.824 27.808-12.192 12.064-32.576 32.192-32.768 40.608 1.024 8.192 22.336 34.048 48.064 58.944 16.32-20.608 49.312-64.288 65.792-100 16.64-36.064 15.776-38.176 1.28-73.344z m-11.328 374.688c2.624 2.656 9.92 9.76 10.976 10.784 4.48 4.32 29.12 27.616 38.144 39.328 8.768 11.392 22.112 29.248 31.104 45.568 10.56 19.2 29.248 42.88 39.808 146.912 0.832 8.096 4.768 31.168 23.072 39.424-2.272-8.704-3.264-18.88 3.04-27.456 5.504-7.488 11.936-9.088 16.352-9.152h0.192c6.944 0 13.504 3.776 19.008 10.976 14.624 19.072 45.568 27.872 65.248 24.128 6.336-1.216 11.072-3.488 14.112-6.848 6.08-16.608 12.704-47.52 8.64-85.856a201.376 201.376 0 0 0-68.64-132l-0.448-0.384c-0.032-0.032-3.36-2.72-7.296-1.632-6.368 2.112-32.832 21.088-53.568 37.504l-10.688 8.448-9.024-10.176c-1.216-1.376-29.568-33.856-26.72-73.952 2.784-38.88 48.32-93.952 87.2-117.728-33.408 6.56-78.528 11.52-100.512 23.104-43.264 22.784-70.24 62.624-80 79.008z"  horiz-adv-x="1024" />

    
    <glyph glyph-name="page_home_left_icon_" unicode="&#59028;" d="M322.5 375.8c-69.8 34.8-116.4 111.7-116.4 202.1 0 123 89.7 222.6 200.4 222.6s200.4-99.7 200.4-222.6c0-90.2-46.5-166.9-115.9-201.9 171.8-41.5 301.9-207.1 310.4-408l-789.4-0.6c10.9 198.3 140.3 366.1 310.5 408.4z m250.6 399c46.2-49.7 74.9-119.3 74.9-196.3 0-71.2-24.5-136-64.6-184.7 124.9-59.7 219.3-183.1 250.1-333.3l178.5 0.1c-7.6 178.6-123.2 325.8-275.9 362.7 61.7 31.1 103 99.2 103 179.4C839.2 712 759.4 800.6 661 800.6c-32.7 0-63.4-9.8-89.8-27"  horiz-adv-x="1024" />

    
    <glyph glyph-name="admin1" unicode="&#58912;" d="M512 725.333333C176.355556 725.333333 0 384 0 384s130.844444-341.333333 512-341.333333c347.022222 0 512 341.333333 512 341.333333s-170.666667 341.333333-512 341.333333z m0-551.822222c-125.155556 0-210.488889 91.022222-210.488889 216.177778S386.844444 600.177778 512 600.177778s210.488889-91.022222 210.488889-216.177778c5.688889-119.466667-85.333333-210.488889-210.488889-210.488889zM512 514.844444c-68.266667 0-125.155556-56.888889-125.155556-125.155555 0-68.266667 56.888889-125.155556 125.155556-125.155556 68.266667 0 125.155556 56.888889 125.155556 125.155556 5.688889 62.577778-51.2 125.155556-125.155556 125.155555z"  horiz-adv-x="1024" />

    
    <glyph glyph-name="insuranceservicesm" unicode="&#58929;" d="M588.068571 310.857143v-284.525714a117.76 117.76 0 1 0-235.52 0v39.131428a36.571429 36.571429 0 1 0 73.142858 0v-39.131428a44.617143 44.617143 0 1 1 89.234285 0V310.857143H117.028571a73.142857 73.142857 0 0 0-72.411428 83.163428c2.925714 21.211429 6.290286 38.765714 10.020571 52.443429A512.365714 512.365714 0 0 0 514.925714 821.76V855.844571a36.571429 36.571429 0 0 0 73.142857 0v-34.523428a512.365714 512.365714 0 0 0 456.777143-383.926857c2.925714-11.702857 5.632-26.185143 7.972572-43.52A73.142857 73.142857 0 0 0 980.406857 310.857143H588.068571zM279.259429 660.845714a481.865143 481.865143 0 0 1-113.152-163.254857 36.571429 36.571429 0 1 1 67.364571-28.452571c22.235429 52.662857 54.272 98.742857 96.182857 138.678857a36.571429 36.571429 0 1 1-50.395428 53.028571z"  horiz-adv-x="1097" />

    
    <glyph glyph-name="role" unicode="&#59119;" d="M684.454 750.924c-187.413 0-339.546 136.89-339.546-46.289 0-34.152 5.363-73.667 14.96-115.44 49.958 2.823 98.222 15.806 141.407 27.378 42.055 11.29 78.183 20.887 111.77 20.887 40.926 0 87.497-14.395 108.102-72.82v0.564H872.15c1.411-5.645 2.54-9.032 2.54-13.83 0-31.894-34.999-57.861-77.9-57.861-27.943 0-52.499 11.007-66.33 27.378 0.848-9.314 1.412-19.193 1.412-29.919 0-33.023-4.234-70.28-12.419-109.794 43.184-13.548 77.054-48.547 86.086-93.425l-33.588 11.29c-10.443 25.685-32.176 45.442-58.707 54.474-13.548-55.038-34.152-113.182-60.966-168.785 10.443-1.976 21.169-3.387 31.894-3.387 187.413 0 339.546 340.11 339.546 523.008 0.282 183.18-151.568 46.57-339.264 46.57z m-176.97-186.002c-4.516-1.13-9.314-2.54-13.83-3.67-46.29-12.136-98.505-23.99-154.108-23.99C152.132 537.261 0 673.87 0 490.971s152.132-523.007 339.546-523.007 339.546 340.11 339.546 523.007c0 123.343-69.152 101.328-171.608 73.95zM149.592 316.825c-1.411 2.822-2.54 8.467-2.54 13.265 0 31.895 34.999 57.297 77.9 57.297s77.901-25.402 77.901-57.297c0-4.798-1.129-10.443-2.54-13.265h-150.72zM339.546 85.38c-66.893 0-122.496 47.7-134.915 106.973h269.548c-12.137-59.273-67.74-106.973-134.633-106.973zM527.24 316.825h-150.72c-1.412 2.822-2.54 8.467-2.54 13.265 0 31.895 34.998 57.297 77.9 57.297 42.902 0 77.9-25.402 77.9-57.297 0-5.08-0.846-10.443-2.54-13.265z"  horiz-adv-x="1024" />

    
    <glyph glyph-name="classfiys" unicode="&#58934;" d="M301.181471 896H60.227793A60.41906 60.41906 0 0 1 0 835.772207v-240.953678a181.235929 181.235929 0 0 1 180.640877-180.640877h241.017433a60.41906 60.41906 0 0 1 60.227793 60.227794V715.295368A181.235929 181.235929 0 0 1 301.181471 896zM602.362942 414.113897h240.932426a181.235929 181.235929 0 0 1 180.640876 180.640876V835.772207A60.41906 60.41906 0 0 1 963.772207 896H722.818529a181.235929 181.235929 0 0 1-180.640877-180.640877v-240.996181a60.41906 60.41906 0 0 1 60.18529-60.249045zM421.65831 353.886103H180.640877a181.235929 181.235929 0 0 1-180.640877-180.640876V-67.772207a60.41906 60.41906 0 0 1 60.227793-60.227793h240.953678a181.235929 181.235929 0 0 1 180.640877 180.640877v240.996181a60.41906 60.41906 0 0 1-60.164038 60.249045zM1087.181803-72.915159c-14.408766 46.137805-11.539764 40.378549-37.488295 89.406608a101.137639 101.137639 0 0 1 17.299021 40.378549c14.408766 49.028059 11.539764 100.946372 2.890254 126.894903-11.539764 43.268803-31.729039 74.97659-60.567824 100.946372-25.948531 23.079528-60.567823 40.378549-103.815374 49.02806-77.866844 20.189274-181.682218 20.189274-314.357629 20.189274h-14.408767c-8.64951 0-20.189274-5.759256-25.94853-11.539764s-8.64951-14.408766-8.64951-25.948531c17.29902-100.946372 43.247551-181.682218 80.757097-245.140295 31.729039-54.808567 69.217334-95.165864 115.355139-121.135647 34.619293-20.189274 74.97659-28.838785 115.355139-28.838785h23.079528c37.488295 2.890254 66.32708 14.408766 80.757098 20.189275 8.64951 2.890254 17.29902 8.64951 23.079528 11.539764s11.539764 11.539764 14.430019 17.29902c14.408766-28.838785 11.539764-17.29902 23.079528-43.268803 5.759256-17.29902 14.430018-34.619293 34.619293-34.619292 17.235265-0.021252 40.314793 17.277769 34.534285 34.619292z"  horiz-adv-x="1088" />

    
    <glyph glyph-name="set2" unicode="&#59019;" d="M0 107.438829C0 236.931122 104.966244 341.873639 234.438556 341.873639H404.917073a63.937561 63.937561 0 0 0 63.956293-63.956293v-170.478517c0-129.497288-104.961249-234.438556-234.43481-234.438556C104.941268-126.999727 0-22.038478 0 107.438829z m85.249249 0c0-82.394537 66.965854-149.190556 149.189307-149.190556 82.395785 0 149.185561 66.965854 149.185561 149.190556V256.62439H234.438556c-82.394537 0-149.189307-66.965854-149.189307-149.185561z m937.750478 554.122615c0-129.493541-104.961249-234.43481-234.438556-234.43481H618.082654a63.937561 63.937561 0 0 0-63.956293 63.956293V661.561444C554.126361 791.058732 659.08761 896 788.561171 896c129.497288 0 234.438556-104.966244 234.438556-234.438556z m-85.248 0c0 82.394537-66.965854 149.189307-149.190556 149.189307C706.17038 810.750751 639.37561 743.784898 639.37561 661.561444v-149.185561h149.185561c82.394537 0 149.190556 66.960859 149.190556 149.185561zM0 661.561444C0 791.033756 104.941268 896 234.438556 896c129.473561 0 234.43481-104.941268 234.43481-234.438556V491.082927a63.896351 63.896351 0 0 0-18.726712-45.229581 63.896351 63.896351 0 0 0-45.229581-18.726712H234.438556C104.966244 427.126634 0 532.067902 0 661.561444z m85.249249 0c0-82.224702 66.794771-149.185561 149.189307-149.185561h149.185561V661.561444c0 82.223454-66.789776 149.189307-149.185561 149.189307-82.223454 0-149.189307-66.794771-149.189307-149.189307z m919.804253-518.107785c9.892839 0 18.009912-8.097093 17.946225-18.028644v-36.058537c0-9.956527-8.117073-18.054868-18.009912-18.054868h-21.628878c-9.892839 0-20.420059-7.736195-23.399649-17.199454l-12.405386-30.200507c-4.667941-8.760195-2.771044-21.697561 4.21963-28.663259l15.384975-15.346263c7.03438-7.03438 7.03438-18.496937 0-25.531317l-25.575024-25.512586c-7.049366-7.009405-18.439493-7.009405-25.48761 0l-15.283824 15.346264c-6.989424 7.03438-19.92679 8.907551-28.663259 4.200897l-30.219239-12.430361c-9.443278-2.940878-17.224429-13.443122-17.224429-23.374673v-21.571434c-0.043707-9.946537-8.102088-17.994927-18.048624-18.028644h-36.038557c-9.956527 0.023727-18.029893 8.073366-18.0736 18.028644v21.571434c0 9.931551-7.717463 20.433795-17.219434 23.374673l-30.267941 12.430361c-8.736468 4.687922-21.610146 2.809756-28.557112-4.180917l-15.408703-15.366244c-7.044371-7.009405-18.424507-7.009405-25.468878 0l-25.531317 25.512586c-7.019395 7.063102-7.019395 18.468215 0 25.531317l15.346264 15.346263c7.029385 6.965698 8.907551 19.903063 4.258341 28.663259l-12.487805 30.200507c-2.940878 9.463259-13.449366 17.199454-23.355941 17.263142h-21.653854c-9.951532 0.00999-18.019902 8.063376-18.05362 18.009912v36.039805c0 9.950283 8.097093 18.05362 18.0736 18.053619h21.633874c9.906576 0 20.458771 7.736195 23.380917 17.219434l12.442848 30.219239c4.687922 8.760195 2.771044 21.633873-4.263336 28.686986l-15.302556 15.347512a18.024898 18.024898 0 0 0 0 25.506341l25.512585 25.468878c7.03438 7.03438 18.434498 7.03438 25.468878 0l15.389971-15.341268c7.029385-6.990673 19.883083-8.912546 28.643278-4.219629l30.200507 12.38041c9.501971 2.960859 17.219434 13.468098 17.219434 23.443356v21.635122c0.033717 9.960273 8.107083 18.023649 18.0736 18.048624h36.038557c9.956527-0.034966 18.014907-8.098341 18.048624-18.048624v-21.653854c0-9.931551 7.781151-20.463766 17.224429-23.380917l30.1568-12.424117c8.760195-4.692917 21.672585-2.771044 28.663259 4.219629l15.38997 15.341268a18.027395 18.027395 0 0 0 25.507591 0l25.536312-25.50759c7.029385-6.990673 7.029385-18.458224 0-25.512585l-15.346263-15.346264c-7.03438-7.033132-8.907551-19.92679-4.244605-28.643278l12.405385-30.219239c2.985834-9.483239 13.468098-17.219434 23.380917-17.219434h21.697561l-0.024976-0.024975zM869.126244 108.843707c0 45.273288-36.706654 81.98119-81.979942 81.981191-45.278283 0-81.979941-36.707902-81.979941-81.981191a81.972449 81.972449 0 0 1 24.024039-57.955902 81.978693 81.978693 0 0 1 57.965893-23.990322 81.952468 81.952468 0 0 1 81.969951 81.946224z"  horiz-adv-x="1024" />

    
    <glyph glyph-name="Total" unicode="&#58942;" d="M889.8 336.8L536.5 196.7c-31.5-13-44.1-13-73.1 0L134.2 336.8c-17.5 8.8-22.2 41.3-22.2 59 22-11.9 52.9-25.1 51.7-24.5l336.2-146.7L836 371.3c0.6 0.1 54.8 14.4 76 24.5 0-18.2-5.9-51.9-22.2-59z m0 146.7L536.5 343.4c-31.5-13-44.1-13-73.1 0L134.2 483.5c-25.8 13-25 53.9 0 69.2l329.1 164.5c29.1 13.8 47.3 14.5 73.1 0l353.4-164.5c25.1-13 24.3-58.5 0-69.2zM499.9 77.9L836 224.6c0.6 0.1 54.8 14.4 76 24.5 0-18.2-5.9-51.9-22.2-59L536.5 50c-31.5-13-44.1-13-73.1 0L134.2 190c-17.5 8.8-22.2 41.3-22.2 59 22-11.9 52.9-25.1 51.7-24.5l336.2-146.6z"  horiz-adv-x="1024" />

    
    <glyph glyph-name="image_homepage_home_" unicode="&#58894;" d="M527.54942 896H490.230812L0 384.84815v-42.972943h20.355605l85.380452 85.945886 395.23799-0.565433h15.832137l395.23799 0.565433 1.696301-1.6963H113.652126v-554.124793h251.617891V340.74434h299.114301V-128H916.002209V423.863059l81.422418-81.987852h20.355605v42.972943zM836.276091 811.184981h-105.736058v-83.684153l105.736058-108.563224zM410.504694 298.33683h213.168415V-128H410.504694z"  horiz-adv-x="1024" />

    
    <glyph glyph-name="set3" unicode="&#58881;" d="M273.682 638.222c0-72.096 39.16-138.7 102.753-174.735 63.594-36.048 141.938-36.048 205.533 0 63.58 36.035 102.752 102.64 102.752 174.735C684.721 749.667 592.711 840 479.202 840c-113.51 0-205.52-90.333-205.52-201.778z m0 0M533.854 146.97699999999998c0 88.244 34.172 167.885 88.887 228.129a475.022 475.022 0 0 1-144.382 22.86C219.131 397.965 8.99 191.66600000000005 8.99-62.837999999999965h598.85c-47.789 59.891-73.836 133.738-73.986 209.815z m0 0M1014.795 109.83399999999995l0.215 76.869s-51.691 10.051-52.521 13.439c-0.984 3.729-2.029 7.432-3.188 11.096 6.07 11.021 35.166 35.217 35.166 35.217l-58.316 76.24s-37.787-30.557-47.17-34.928a146.447 146.447 0 0 1-13.842 4.498c-5.076 1.258-19.121 50.115-19.121 50.115l-78.443 0.631s-8.477-47.346-21.186-50.607c-4.232-1.248-8.477-2.771-12.709-4.711-9.396 4.508-47.156 35.492-47.156 35.492l-58.33-77.498s29.234-28.906 31.211-38.605a155.347 155.347 0 0 1-3.463-9.283 577.59 577.59 0 0 0-48.215-11.234l0.139-76.869s41.514-8.465 49.424-15.316c1.625-4.447 3.525-8.742 5.504-12.973-9.598-11.777-35.154-31.326-35.154-31.326l60.156-76.883s47.232 30.027 54.99 31.754a172.736 172.736 0 0 1 11.791-4.572c7.129-2.432 12.154-47.207 12.154-47.207l78.367-0.201s2.609 43.943 8.389 45.67a162.95 162.95 0 0 1 16.678 6.109c6.563-2.508 37.559-32.861 37.559-32.861l77.512 77.498s-28.729 19.475-36.703 30.016a157.702 157.702 0 0 1 5.934 13.439c2.467 7.216 50.328 16.991 50.328 16.991m-199.461-58.293c-35.328 0-67.977 18.504-85.66 48.543-17.658 30.053-17.658 67.07 0 97.111 17.684 30.051 50.332 48.566 85.66 48.566 54.641 0 98.926-43.479 98.926-97.109 0-53.644-44.285-97.111-98.926-97.111"  horiz-adv-x="1024" />

    
    <glyph glyph-name="woman1" unicode="&#58902;" d="M485.514 617.462s41.997-53.997 62.997-25.499c20.998 28.499 23.998 19.499 40.498 46.498s9 43.498 10.5 55.497 127.492 78.656-40.498 185.571c0 0-225.792 35.441-223.489-37.078 2.199-69.225 0.745-75.496 0.745-75.496s56.252-26.499 56.252-71.497-73.168-31.499-89.082-125.994c-15.912-94.495 17.086-217.488 47.084-307.484l1.5-104.996s-94.495-160.49 21-239.986c0 0 17.999 3 16.499-41.998h256.751s-82.76 115.494-42.262 145.492c40.498 30 109.494 70.498 121.494 110.996s-6 206.988-118.494 265.486c0 0 21.314 133.493-89.088 131.993 0 0.001-41.408 19.497-32.407 88.495z"  horiz-adv-x="1024" />

    
    <glyph glyph-name="jiaoseguanli" unicode="&#59032;" d="M862.723281 811.713227H168.712016C107.351246 811.713227 58.687676 763.049657 58.687676 701.688887v-493.011394c0-61.35475 48.66357-110.024341 110.02434-110.024341h694.011265c61.35475 0 110.024341 48.669591 110.024341 110.024341V701.688887c0 61.36077-48.66357 110.024341-110.024341 110.02434z m48.669591-603.035734c0-27.495549-21.15598-48.65755-48.669591-48.65755H168.712016c-27.50157 0-48.66357 21.162-48.66357 48.65755V701.688887c0 27.50759 21.162 48.66357 48.66357 48.66357h694.011265c27.513611 0 48.669591-21.162 48.669591-48.66357v-493.011394z m-78.290371-209.464671H659.6042v16.9296c0 14.81039-12.703221 27.50157-27.513611 27.50157H382.421128c-14.81039 0-27.50759-12.69118-27.50759-27.50157v-16.9296H181.409217c-16.9296 0-31.73999-14.81039-31.739991-31.739991 0-16.92358 14.81039-31.73397 31.739991-31.733969h651.693284c16.9296 0 31.73999 14.816411 31.73999 31.733969 0.00602 16.9296-14.81039 31.73999-31.73999 31.739991zM826.750891 462.591395l-224.287102 10.571969H492.445469l8.4648-14.804369-10.57799-21.168021 21.162-156.568701c0-6.35161-2.11921-12.6972-6.35161-16.93562l-29.62078-29.62078v-2.11319l-2.11319 2.11319-2.11921-2.11319v2.11319l-29.626801 31.73999c-4.2324 4.2324-6.34559 10.58401-6.34559 16.9296l21.15598 156.580742-10.57799 21.15598 8.464801 14.81039H359.145938c-6.34559 0-12.6972-4.22638-14.81039-12.69118 0 0-52.89597-194.660301-46.55038-256.027092l2.11921-2.119211c12.6972-10.57799 50.78278-38.08558 50.78278-38.08558 2.11921 0 2.11921-2.11921 2.119211-2.11921h232.751902l-6.351611 198.892701c0 8.470821 6.35161 16.9296 16.92358 16.929601l188.326752 2.11921c8.452759 0 14.80437 4.238421 19.030749 10.58401l29.626801 55.00916c8.452759 4.238421 2.11319 14.816411-6.363651 14.816411z m-374.510213 40.19877c69.825571-16.9296 129.067131 35.978411 129.067131 99.446351 0 57.12837-46.55038 103.678751-103.67273 103.67875-67.712381 0-118.489141-63.47396-99.446351-133.29953 10.57799-33.84716 38.08558-61.36077 74.05195-69.825571z"  horiz-adv-x="1031" />

    
    <glyph glyph-name="Woman" unicode="&#58972;" d="M370.447059 254.494118c-9.035294 6.023529-39.152941 9.035294-81.317647 9.035294 0 0-6.023529 0-36.141177 6.023529s-21.082353 54.211765-12.047059 81.317647 9.035294 280.094118 12.047059 319.247059C265.035294 799.623529 349.364706 896 518.023529 896c114.447059 0 192.752941-132.517647 198.776471-225.882353 6.023529-87.341176 15.058824-159.623529 21.082353-222.870588 3.011765-24.094118 0-102.4 24.094118-123.482353 24.094118-21.082353 3.011765-60.235294-45.176471-54.211765-27.105882-3.011765-72.282353-3.011765-90.352941-15.058823-9.035294-6.023529-18.070588-54.211765 6.023529-72.282353 81.317647-57.223529 117.458824-66.258824 246.964706-147.576471 42.164706-27.105882 72.282353-54.211765 72.282353-102.4s-45.176471-42.164706-117.458823-42.164706h-692.705883c-60.235294 0-96.376471 0-96.37647 57.22353s81.317647 105.411765 123.482353 129.505882c69.270588 39.152941 180.705882 90.352941 201.788235 108.423529 12.047059 15.058824 18.070588 54.211765 0 69.270589z"  horiz-adv-x="1024" />

    
    <glyph glyph-name="total1" unicode="&#58916;" d="M873.66 437.14c-54.157-61.948-190.195-106.008-350.076-106.008-3.927 0-7.649 0.17-11.584 0.254-3.931-0.083-7.697-0.254-11.628-0.254-159.924 0-295.871 44.064-349.993 105.969l-2.238-2.37v-113.53c52.685-63.186 190.239-108.377 352.275-108.377 3.887 0 7.657 0.206 11.671 0.25 3.852-0.048 7.614-0.25 11.497-0.25 162.04 0 299.641 45.195 352.28 108.377v113.53c-0.638 0.804-1.523 1.563-2.204 2.41zM523.588 767.473c-3.884 0-7.649-0.21-11.497-0.254-4.022 0.044-7.784 0.254-11.671 0.254-162.04 0-299.594-45.203-352.28-108.421v-113.495c0.72-0.842 1.523-1.61 2.243-2.409C204.592 481.244 340.54 437.14 500.42 437.14c3.887 0 7.657 0.214 11.671 0.297 3.852-0.083 7.613-0.297 11.497-0.297 159.964 0 295.915 44.104 350.088 106.052 0.72 0.803 1.554 1.566 2.195 2.365V659.052c-52.646 63.218-190.247 108.42-352.283 108.42zM873.66 212.816c-54.157-61.944-190.195-106.008-350.076-106.008-3.927 0-7.649 0.17-11.584 0.253-3.931-0.083-7.697-0.253-11.628-0.253-159.924 0-295.871 44.056-349.993 105.965-0.763-0.795-1.522-1.562-2.238-2.365v-113.495c52.685-63.21 190.239-108.42 352.275-108.42 3.887 0 7.657 0.248 11.671 0.296 3.852-0.048 7.614-0.297 11.497-0.297 162.04 0 299.641 45.21 352.28 108.42V210.409c-0.638 0.803-1.523 1.605-2.204 2.408z"  horiz-adv-x="1024" />

    
    <glyph glyph-name="system" unicode="&#58921;" d="M483.555556 270.222222V355.555556h-284.444445c-17.066667 0-28.444444-11.377778-28.444444-28.444445v-56.888889h56.888889c34.133333 0 56.888889-22.755556 56.888888-56.888889v-284.444444c0-34.133333-22.755556-56.888889-56.888888-56.888889H56.888889c-34.133333 0-56.888889 22.755556-56.888889 56.888889v284.444444c0 34.133333 22.755556 56.888889 56.888889 56.888889h56.888889v56.888889c0 45.511111 39.822222 85.333333 85.333333 85.333333h284.444445V497.777778H284.444444c-34.133333 0-56.888889 22.755556-56.888888 56.888889V839.111111c0 34.133333 22.755556 56.888889 56.888888 56.888889h455.111112c34.133333 0 56.888889-22.755556 56.888888-56.888889v-284.444444c0-34.133333-22.755556-56.888889-56.888888-56.888889H540.444444v-85.333334h284.444445c45.511111 0 85.333333-39.822222 85.333333-85.333333v-56.888889h56.888889c34.133333 0 56.888889-22.755556 56.888889-56.888889v-284.444444c0-34.133333-22.755556-56.888889-56.888889-56.888889h-170.666667c-34.133333 0-56.888889 22.755556-56.888888 56.888889v284.444444c0 34.133333 22.755556 56.888889 56.888888 56.888889h56.888889v56.888889c0 17.066667-11.377778 28.444444-28.444444 28.444445h-284.444445V270.222222H625.777778c34.133333 0 56.888889-22.755556 56.888889-56.888889v-284.444444c0-34.133333-22.755556-56.888889-56.888889-56.888889H398.222222c-34.133333 0-56.888889 22.755556-56.888889 56.888889v284.444444c0 34.133333 22.755556 56.888889 56.888889 56.888889h85.333334z"  horiz-adv-x="1024" />

    
    <glyph glyph-name="child" unicode="&#59277;" d="M368.00075 752c0 79.53 64.47 144 144 144s144-64.47 144-144c0-79.528-64.47-144-144-144s-144 64.472-144 144z m509.254-2.746c-24.992 24.994-65.516 24.994-90.508 0L613.49075 576H410.50875L237.25475 749.254c-24.992 24.994-65.516 24.994-90.508 0-24.994-24.994-24.994-65.516 0-90.51L336.00075 469.492V-64c0-35.346 28.654-64 64-64h32c35.346 0 64 28.654 64 64V160h32v-224c0-35.346 28.654-64 64-64h32c35.346 0 64 28.654 64 64V469.492l189.254 189.254c24.994 24.994 24.994 65.514 0 90.508z"  horiz-adv-x="1024" />

    
    <glyph glyph-name="equipment" unicode="&#58897;" d="M0.282122-41.57649a85.086041 85.086041 0 0 1 85.148735-85.138286h851.278367a85.086041 85.086041 0 0 1 85.159184 85.138286V192.606041a85.086041 85.086041 0 0 1-85.159184 85.138286H681.440653V501.091265a53.195755 53.195755 0 0 1-106.39151 0v-223.482775H85.430857a85.086041 85.086041 0 0 1-85.148735-85.148735v-234.036245M106.684082 75.514776a53.195755 53.195755 0 1 0 53.206204-53.185307 53.289796 53.289796 0 0 0-53.206204 53.185307m191.68653 0a53.195755 53.195755 0 1 0 106.39151 0 53.195755 53.195755 0 0 0-106.39151 0M628.234449 724.574041c-123.506939 0-223.482776-99.975837-223.482776-223.482776a53.195755 53.195755 0 0 1 106.391511 0c0 64.752327 52.349388 117.091265 117.091265 117.091266 64.752327 0 117.091265-52.349388 117.091265-117.091266a53.195755 53.195755 0 0 1 106.39151 0c0 123.506939-100.122122 223.482776-223.482775 223.482776M628.234449 894.850612c-217.49551 0-393.769796-176.274286-393.769796-393.759347a53.195755 53.195755 0 0 1 106.39151 0c0 158.730449 128.501551 287.378286 287.378286 287.378286 158.730449 0 287.378286-128.501551 287.378286-287.378286a53.195755 53.195755 0 0 1 106.39151 0C1021.857959 718.722612 845.729959 894.850612 628.234449 894.850612"  horiz-adv-x="1024" />

    
    <glyph glyph-name="goods" unicode="&#58943;" d="M148.7-63.7H876c46.3 0 83.9 37.6 83.9 83.9v481c0 35.2-12.7 87.3-29 118.5l-76.5 147.2c-18.9 36.3-65.7 64.7-106.6 64.7H277.4c-40.8 0-87.8-28.2-106.9-64.3L94.1 623.1c-15.4-29.2-27.7-76.6-29.2-111.4v-496.4c2.6-44.1 39.1-79 83.8-79zM344 142.1h-84c-14.6 0.6-26.3 12.3-26.9 26.9-0.6 15.4 11.4 28.5 26.9 29.1h84c15.4 0 28-12.5 28-28-0.1-15.5-12.6-28-28-28z m84.9 119.3H261c-14.9 0.4-26.8 12.4-27.2 27.2-0.4 15.5 11.8 28.3 27.2 28.8h167.9c15.5 0 28-12.5 28-28s-12.6-28-28-28zM788.4 320L629.1 149.8c-3.2-3.3-7-5.5-11.1-6.9-3.7-1.6-7.5-2.6-11.4-2.6-7.2 0-14.3 2.7-19.7 8.2L510.2 225c-10.9 10.9-10.9 28.6 0 39.6 10.9 10.9 28.6 10.9 39.6 0l56.8-56.8 140.9 150.5c10.4 10.5 27.2 11 38.3 1.3 11.6-10.3 12.8-28 2.6-39.6zM143.6 596.9L220 741c9.6 18 36.9 34.5 57.4 34.5h470.4c20.4 0 47.5-16.5 57-34.6l76.5-147.2c3.6-7 7-16 10.1-25.6h-759c3.4 10.9 7.1 21.1 11.2 28.8z"  horiz-adv-x="1024" />

    
    <glyph glyph-name="fenlei" unicode="&#59115;" d="M556.501 255.54100000000005a53.27 53.27 0 0 0 53.686 53.686H877.44a53.227 53.227 0 0 0 38.08-15.606 53.173 53.173 0 0 0 15.605-38.08v-267.264a53.227 53.227 0 0 0-53.685-53.685H610.187a53.259 53.259 0 0 0-53.686 53.685V255.54100000000005z m-481.664 0a53.259 53.259 0 0 0 53.664 53.686h267.275a53.27 53.27 0 0 0 53.685-53.686v-267.264a53.259 53.259 0 0 0-53.685-53.685H128.501a53.29 53.29 0 0 0-53.664 53.685V255.54100000000005z m0 481.664a53.227 53.227 0 0 0 15.606 38.08 53.173 53.173 0 0 0 38.058 15.606h267.275a53.227 53.227 0 0 0 38.08-15.606 53.333 53.333 0 0 0 15.605-38.08v-267.264a53.312 53.312 0 0 0-53.685-53.685H128.501a53.248 53.248 0 0 0-53.664 53.685V737.205z m630.976 93.302a53.301 53.301 0 0 0 75.926 0l189.024-188.939a53.28 53.28 0 0 0 0-75.915L781.813 376.64a53.27 53.27 0 0 0-76.01 0L516.875 565.568a53.323 53.323 0 0 0 0 75.925L705.813 830.5070000000001z m0 0"  horiz-adv-x="1024" />

    
    <glyph glyph-name="jurisdiction" unicode="&#58937;" d="M256 889.6C288 889.6 384 896 512 896s224-6.4 256-6.4c0-89.6 64-153.6 160-153.6 0-44.8-6.4-256-12.8-384-6.4-166.4-147.2-326.4-403.2-480-256 147.2-390.4 307.2-403.2 480-12.8 128-6.4 256-6.4 384C198.4 736 256 793.6 256 889.6zM844.8 384c0-166.4-140.8-307.2-332.8-422.4V377.6l332.8 6.4zM512 377.6H179.2c-6.4 102.4 0 192 0 294.4 64 0 140.8 83.2 140.8 147.2 25.6 0 96 6.4 192 6.4v-448z"  horiz-adv-x="1024" />

    
    <glyph glyph-name="pregnant-" unicode="&#58914;" d="M252.586667 247.808c7.509333-8.874667 76.458667-51.882667 103.082666-48.810667 0 0-6.485333 81.237333-59.733333 135.850667-60.757333-45.397333-52.906667-75.434667-43.349333-87.04zM512 896C229.376 896 0 666.624 0 384c0-194.901333 108.885333-364.544 269.312-450.901333 0 30.378667 3.413333 64.512 15.701333 83.285333 25.941333 38.912 57.002667 52.224 67.242667 111.616-32.426667 2.730667-174.08 39.936-204.117333 98.986667-33.792 66.56 109.226667 217.088 133.12 244.394666l-53.248-3.413333s49.152 37.205333 45.738666 94.890667c-3.413333 58.026667-18.090667 148.138667 9.898667 190.805333 27.989333 42.325333 90.453333 62.122667 132.437333 56.32 41.984-6.144 92.501333-34.133333 94.208-66.56s-1.024-57.002667-4.437333-72.021333 3.072-29.013333 9.898667-35.84c7.168-6.826667-5.802667-65.194667-21.504-78.165334-16.042667-12.970667-24.234667-13.312-24.234667-13.312l-41.642667-1.024s-3.413333-9.216-2.730666-32.426666c0.341333-23.210667 11.264-36.864 21.845333-46.08 10.581333-9.216 94.549333-77.141333 108.885333-92.842667 8.533333-23.210667-10.24-60.757333-35.498666-78.506667 39.936-17.749333 98.304-55.296 121.514666-141.653333 18.773333-70.314667-11.946667-157.013333-98.304-190.122667 6.485333-35.84-7.509333-83.626667-7.509333-83.626666l-86.016-1.706667c20.138667-2.389333 40.618667-3.754667 61.44-3.754667 282.624 0 512 229.376 512 512C1024 666.624 794.624 896 512 896z m322.218667-628.053333h-81.237334v174.08c0 25.258667-0.682667 40.277333-1.706666 45.397333-1.365333 5.12-4.437333 8.874667-9.898667 11.605333-5.461333 2.730667-17.408 3.754667-36.181333 3.754667h-7.850667v37.888c39.253333 8.533333 68.949333 25.6 89.429333 51.882667h47.786667V267.946667z"  horiz-adv-x="1024" />

    
    <glyph glyph-name="pregnant-first" unicode="&#58915;" d="M1024 384v-10.581333c0-3.072 0-6.485333-0.341333-9.557334 0-2.048 0-4.096-0.341334-5.802666v-2.389334c0-2.048-0.341333-4.096-0.341333-6.485333-0.341333-4.437333-0.682667-9.216-1.024-13.653333 0-2.048-0.341333-4.096-0.682667-6.144-0.341333-3.413333-0.682667-6.826667-1.365333-10.24-0.341333-2.048-0.682667-4.096-0.682667-6.485334-0.341333-3.072-1.024-6.485333-1.365333-9.557333-0.682667-3.754667-1.365333-7.509333-1.706667-10.922667-1.365333-7.509333-2.730667-15.018667-4.437333-22.186666-1.365333-6.144-3.072-12.288-4.437333-18.090667v-0.341333c-58.709333-218.112-257.706667-378.88-494.592-378.88h-6.485334c-40.96 0.341333-81.237333 5.802667-119.466666 15.701333l-8.192 2.048c-99.328 26.965333-186.709333 82.944-252.586667 158.72-1.024 1.365333-2.389333 2.730667-3.413333 4.096-0.341333 0.341333-0.682667 0.682667-1.024 1.365333C56.32 130.048 13.653333 225.28 2.730667 330.069333v1.706667c-0.341333 2.389333-0.341333 5.12-0.682667 7.509333-0.341333 3.072-0.682667 6.144-0.682667 9.216 0 2.389333-0.341333 5.12-0.341333 7.509334v3.072c0 2.389333-0.341333 4.778667-0.341333 7.509333 0 2.730667-0.341333 5.802667-0.341334 8.533333v0.682667V385.024v9.557333c0 3.072 0 6.485333 0.341334 9.557334 0 4.096 0.341333 8.533333 0.682666 12.629333C11.605333 577.194667 95.573333 717.482667 219.477333 803.84 302.08 861.866667 403.114667 896 512 896h6.485333c52.224-0.682667 102.4-9.216 149.504-24.234667 1.365333-0.341333 2.389333-0.682667 3.413334-1.024 44.032-14.677333 86.698667-35.84 128-63.146666 9.898667-6.485333 16.725333-14.336 21.845333-25.258667 24.917333-52.906667 38.229333-108.544 42.666667-166.570667 3.072-38.912-16.042667-61.098667-55.296-66.218666-12.970667-1.706667-25.941333-2.730667-38.912-4.096-39.253333-4.437333-65.877333-25.941333-81.237334-61.44-14.336-32.768-26.624-66.218667-41.301333-98.645334-11.264-24.576-27.306667-45.397333-54.954667-56.661333-4.437333 20.821333-4.096 40.96-14.336 58.026667-6.485333 10.581333-12.970667 22.186667-27.989333 18.432-12.970667-3.413333-20.821333-12.629333-18.090667-27.306667 2.048-12.629333-4.096-13.653333-13.994666-10.922667-15.36 4.437333-37.546667 4.778667-39.253334 22.869334-2.048 19.797333 20.821333 20.821333 35.498667 25.941333 6.144 2.048 12.970667 2.048 19.114667 3.413333 46.421333 9.898667 58.368 25.941333 53.248 73.045334-1.024 9.898667-1.365333 18.773333 3.072 28.330666 49.834667 109.226667-3.754667 206.506667-122.88 223.573334-115.370667 16.725333-203.434667-51.541333-216.746667-167.594667-4.778667-40.277333 10.581333-75.434667 38.912-101.034667 37.546667-34.133333 37.205333-69.290667 18.432-111.616-28.330667-63.146667-39.594667-128.341333-13.653333-195.925333 39.936-103.424 141.653333-153.6 247.125333-122.538667 44.373333 12.970667 72.704 40.96 90.112 82.261334 3.754667 8.874667 6.485333 18.090667 9.898667 27.306666 10.922667 29.696 34.474667 36.181333 58.709333 15.36 11.605333-9.898667 21.504-22.186667 32.768-32.768 34.133333-32.085333 69.632-28.330667 96.597333 10.24 5.802667 8.192 11.946667 17.066667 5.802667 26.624-5.12 8.533333-16.384 10.922667-24.234667 7.850667-35.157333-13.653333-48.128 9.898667-61.781333 33.792-6.826667 11.946667-14.677333 23.210667-23.210667 34.474667-21.504 27.989333-50.176 47.445333-90.794666 26.624-17.749333-9.216-38.912-10.922667-60.074667-7.168 76.117333 18.090667 110.592 74.069333 134.826667 140.288 3.754667 10.581333 8.192 21.162667 11.605333 32.085333 8.192 26.624 25.6 39.594667 53.589333 40.96 22.186667 1.024 43.690667-2.730667 65.877334-3.754667 62.805333-3.072 103.765333 30.378667 112.64 92.842667 2.389333 17.749333 3.413333 35.498667 5.802666 57.344 5.461333-8.533333 10.581333-17.066667 15.018667-25.6 15.018667-31.061333 26.624-64.170667 35.157333-98.645333 0.682667-2.048 1.024-4.096 1.365334-6.144 6.826667-29.013333 10.922667-58.709333 12.288-89.429334v-2.730666c0-2.730667 0.341333-5.12 0.341333-7.850667 0-2.730667 0-5.461333 0.341333-8.192 0.682667-2.048 0.682667-4.437333 0.682667-7.168z"  horiz-adv-x="1024" />

    
    <glyph glyph-name="banner" unicode="&#59747;" d="M512 640c25.6 0 51.2 25.6 51.2 51.2s-25.6 51.2-51.2 51.2-51.2-25.6-51.2-51.2S486.4 640 512 640zM1024 793.6V896H0v-102.4h51.2v-460.8H0v-102.4h236.8l-134.4-320 96-38.4 64 153.6H768l64-153.6 96 38.4-134.4 320H1024V332.8h-51.2V793.6h51.2zM723.2 128H300.8l44.8 102.4h332.8L723.2 128z m147.2 428.8l-153.6 160L512 480 364.8 665.6 153.6 454.4V793.6h716.8v-236.8z"  horiz-adv-x="1024" />

    
    <glyph glyph-name="collect1" unicode="&#58961;" d="M806.014 224.006C714.684 130.752 606.602 58.473 512.498 0c-94.079 58.448-202.141 130.707-293.51 224.006-111.986 114.383-175.852 294.035-66.089 437.54C190.461 710.669 253.052 740 320.329 740c39.147 0 76.29-10.065 107.4-29.097 25.247-15.45 46.352-35.71 71.318-60.595l14.254-12.653 12.673 12.643c24.966 24.895 46.061 45.164 71.274 60.6C628.374 729.935 665.516 740 704.663 740c67.287 0 129.887-29.33 167.46-78.454 109.733-143.495 45.867-323.157-66.11-437.54zM702.82 592.676c7.976-2.083 21.856-10.793 39.882-26.352 15.275-13.184 25.543-33.605 30.36-62.626 2.928-17.639 19.6-29.564 37.24-26.636 17.639 2.928 29.564 19.6 26.636 37.24-7.15 43.068-24.312 77.202-51.928 101.039-24.866 21.462-46.223 34.864-65.83 39.984-17.3 4.517-34.987-5.845-39.505-23.145-4.517-17.3 5.845-34.987 23.145-39.505z"  horiz-adv-x="1024" />

    
    <glyph glyph-name="collect2" unicode="&#58933;" d="M910.889071 462.201383c0 223.301059-181.0295 404.290548-404.290548 404.290548S102.307975 685.502442 102.307975 462.201383c0-108.46966 42.951745-206.73653 112.490759-279.376392h-0.780213l292.580002-287.998749 266.572891 263.932169a408.111593 408.111593 0 0 1 33.569179 33.249091l7.141953 7.101942-0.700191-0.040011c60.756613 70.759348 97.706717 162.544446 97.706716 263.13195zM446.041965 233.558864h-49.753605c2.96081 30.548353 4.441214 60.096433 4.441214 88.664244v48.793342l-57.115617-15.784316a104.928691 104.928691 0 0 1-35.94983-17.744852 251.668816 251.668816 0 0 1-20.205525 40.891181c13.123588 7.542062 19.685383 18.545071 19.685383 32.98902v139.878248c0 29.568085-0.660181 48.613293-1.960536 57.135623a179.389052 179.389052 0 0 1 30.02821-2.940804l15.264174 0.460126c4.581253 0 6.921893-0.980268 6.921893-2.96081 0-1.980542-1.480405-3.761028-4.46122-5.421482-6.241707-2.940804-9.36256-7.402024-9.36256-13.303638v-189.151721l57.135623 11.823233v197.514008c0 39.410776-1.320361 64.03751-3.941078 73.880201 11.823233-2.300629 28.207713-3.460946 49.253468-3.460946 5.561521 0 8.362287-0.980268 8.362287-2.920799 0-1.980542-2.220607-4.281171-6.661822-6.901887-4.421209-2.640722-6.641816-14.784043-6.641816-36.449967v-306.363771c0.040011-27.547533 1.68046-57.075607 4.961357-88.624233z m250.228421 7.402024a359.158207 359.158207 0 0 0-109.870042 77.841284c-27.547533-32.508889-61.896925-58.616028-102.928145-78.341421-5.581526 12.14332-16.244442 23.326378-32.008752 33.529168 37.430235 12.14332 73.700152 36.449967 108.829758 72.919939-22.96628 29.888173-37.910366 75.860743-44.832259 137.897707l33.029032 10.362833c3.600985-47.272926 15.904349-86.34361 36.930098-117.21205 23.646466 35.789786 37.930372 91.625054 42.871723 167.465791h-88.664245c-20.725667-46.972844-37.63029-80.441996-50.733872-100.467471-12.14332 8.182237-23.666471 14.123862-34.509436 17.724846 19.685383 27.24745 37.190169 61.236744 52.474348 101.987888 15.244168 40.691126 24.546712 77.481186 27.827609 110.330168 21.325831-7.221975 38.91064-11.823233 52.714414-13.783769 3.941078-0.640175 5.901614-1.800492 5.901614-3.440941s-1.240339-3.440941-3.721017-5.421482c-2.460673-2.000547-5.74157-7.081936-9.842692-15.304185-4.101121-8.182237-12.54343-27.087407-25.366936-56.635486h99.98734c32.188802 0 53.994764 1.480405 65.517915 4.421209v-42.331575c-11.223069 1.980542-27.927636 2.940804-50.293752 2.940804-7.181964-89.324425-26.247177-155.162427-57.095612-197.534013 30.82843-27.267456 68.918845-45.792521 114.251241-55.635213-16.684562-15.884343-26.867347-32.908999-30.468332-51.314031z"  horiz-adv-x="1024" />

    
    <glyph glyph-name="Entrustmanagement" unicode="&#58922;" d="M629.028571 530.285714H394.971429c-14.628571 0-29.257143 14.628571-29.257143 29.257143V793.6c0 14.628571 14.628571 29.257143 29.257143 29.257143h234.057142c14.628571 0 29.257143-14.628571 29.257143-29.257143v-234.057143c0-14.628571-14.628571-29.257143-29.257143-29.257143z m0-614.4H394.971429c-14.628571 0-29.257143 14.628571-29.257143 29.257143V179.2c0 14.628571 14.628571 29.257143 29.257143 29.257143h234.057142c14.628571 0 29.257143-14.628571 29.257143-29.257143V-54.857143c0-14.628571-14.628571-29.257143-29.257143-29.257143z m-365.714285 0H29.257143c-14.628571 0-29.257143 14.628571-29.257143 29.257143V179.2c0 14.628571 14.628571 29.257143 29.257143 29.257143h234.057143c14.628571 0 29.257143-14.628571 29.257143-29.257143V-54.857143c0-14.628571-14.628571-29.257143-29.257143-29.257143z m731.428571 0h-234.057143c-14.628571 0-29.257143 14.628571-29.257143 29.257143V179.2c0 14.628571 14.628571 29.257143 29.257143 29.257143h234.057143c14.628571 0 29.257143-14.628571 29.257143-29.257143V-54.857143c0-14.628571-14.628571-29.257143-29.257143-29.257143zM877.714286 149.942857c-14.628571 0-29.257143 14.628571-29.257143 29.257143V340.114286H175.542857v-160.914286c0-14.628571-14.628571-29.257143-29.257143-29.257143s-29.257143 14.628571-29.257143 29.257143V369.371429c0 14.628571 14.628571 29.257143 29.257143 29.257142h731.428572c14.628571 0 29.257143-14.628571 29.257143-29.257142v-190.171429c0-14.628571-14.628571-29.257143-29.257143-29.257143zM512 149.942857c-14.628571 0-29.257143 14.628571-29.257143 29.257143V559.542857c0 14.628571 14.628571 29.257143 29.257143 29.257143s29.257143-14.628571 29.257143-29.257143v-380.342857c0-14.628571-14.628571-29.257143-29.257143-29.257143z"  horiz-adv-x="1024" />

    
    <glyph glyph-name="page_home_left_icon_1" unicode="&#59073;" d="M513.8 384.6V882.7C778 858.8 988.1 648.7 1012 384.6H513.8z m418-80.4H472.9c-23.1 0-41.9 18.8-41.9 41.9V804.8C196.2 783.6 12 586.5 12 346.1c0-254.5 206.4-460.8 460.9-460.8 240.4 0 437.7 184.1 458.9 418.9z m0 0"  horiz-adv-x="1024" />

    
    <glyph glyph-name="tico-muisc-b" unicode="&#58925;" d="M259-4c-74.29 0-136.19 60.14-136.19 136.19S183 268.40999999999997 259 268.40999999999997c30.07 0 58.37-10.61 83.13-28.3l7.07-5.31V671.67c0 26.53 21.22 47.76 46 47.76l454.56 53.06h3.54c24.76 1.77 47.76-19.46 47.76-46v-511.15c0-37.14-14.15-70.75-40.68-95.51-24.76-24.76-60.13-38.91-95.51-38.91-74.29 0-136.19 60.14-136.19 136.19 0 74.29 60.14 136.19 136.19 136.19A138.71 138.71 0 0 0 848 325l7.07-5.31v237l-459.85-49.51v-375C393.46 56.15999999999997 333.32-4 259-4z m0 224.63c-49.52 0-90.2-40.68-90.2-90.2s40.68-90.21 90.2-90.21 90.2 40.68 90.2 90.21c-1.77 51.29-40.68 90.2-90.2 90.2z m505.85 84.9c-49.52 0-90.2-40.68-90.2-90.21s40.68-90.2 90.2-90.2 90.2 40.68 90.2 90.2-40.68 90.21-90.2 90.21zM393.46 553.1700000000001l459.86 49.52V728.27l-454.56-53.06h-5.3z m0 0M259.97 132.01999999999998m-105 0a105 105 0 1 1 210 0 105 105 0 1 1-210 0ZM764.97 216.01999999999998m-105 0a105 105 0 1 1 210 0 105 105 0 1 1-210 0ZM259-4c-74.29 0-136.19 60.14-136.19 136.19S183 268.40999999999997 259 268.40999999999997c30.07 0 58.37-10.61 83.13-28.3l7.07-5.31V671.67c0 26.53 21.22 47.76 46 47.76l454.56 53.06h3.54c24.76 1.77 47.76-19.46 47.76-46v-511.15c0-37.14-14.15-70.75-40.68-95.51-24.76-24.76-60.13-38.91-95.51-38.91-74.29 0-136.19 60.14-136.19 136.19 0 74.29 60.14 136.19 136.19 136.19A138.71 138.71 0 0 0 848 325l7.07-5.31v237l-459.85-49.51v-375C393.46 56.15999999999997 333.32-4 259-4z m0 224.63c-49.52 0-90.2-40.68-90.2-90.2s40.68-90.21 90.2-90.21 90.2 40.68 90.2 90.21c-1.77 51.29-40.68 90.2-90.2 90.2z m505.85 84.9c-49.52 0-90.2-40.68-90.2-90.21s40.68-90.2 90.2-90.2 90.2 40.68 90.2 90.2-40.68 90.21-90.2 90.21zM393.46 553.1700000000001l459.86 49.52V728.27l-454.56-53.06h-5.3z m0 0M880.62 588.28l-493.64-48.26V685.46l483 54.57 10.64-151.75z"  horiz-adv-x="1024" />

    
    <glyph glyph-name="systemstate" unicode="&#59154;" d="M445.141333 100.736v85.333333h-213.333333a42.666667 42.666667 0 0 0-42.666667 42.666667v426.666667a42.666667 42.666667 0 0 0 42.666667 42.666666h554.666667a42.666667 42.666667 0 0 0 42.666666-42.666666v-426.666667a42.666667 42.666667 0 0 0-42.666666-42.666667h-213.333334v-85.333333h138.666667a32 32 0 0 0 0-64h-405.333333a32 32 0 0 0 0 64h138.666666zM260.394667 480.426667c-18.346667 0-33.194667-13.653333-33.194667-30.464 0-16.853333 14.848-30.464 33.194667-30.464H357.973333a33.962667 33.962667 0 0 1 28.074667 14.208l29.184 42.538666 54.613333-180.053333c8.106667-26.496 47.36-30.378667 61.354667-6.016l74.368 129.28h82.389333a33.749333 33.749333 0 0 1 29.013334 15.786667l60.714666 100.693333c8.832 14.677333 3.029333 33.237333-13.013333 41.386667-16 8.106667-36.224 2.773333-45.098667-11.946667l-51.2-84.949333h-82.773333a33.706667 33.706667 0 0 1-29.354667-16.213334l-44.8-77.909333-52.394666 172.544c-7.68 25.429333-44.672 30.421333-60.032 8.064L339.712 480.426667h-79.36z"  horiz-adv-x="1024" />

    
    <glyph glyph-name="iclibrarymusicp" unicode="&#60725;" d="M853.333333 810.666667H341.333333a85.333333 85.333333 0 0 1-85.333333-85.333334v-512a85.333333 85.333333 0 0 1 85.333333-85.333333h512a85.333333 85.333333 0 0 1 85.333334 85.333333V725.333333a85.333333 85.333333 0 0 1-85.333334 85.333334z m-85.333333-213.333334h-128v-234.666666a106.666667 106.666667 0 1 0-106.666667 106.666666 104.533333 104.533333 0 0 0 64-21.76V682.666667h170.666667v-85.333334zM170.666667 640H85.333333v-597.333333a85.333333 85.333333 0 0 1 85.333334-85.333334h597.333333v85.333334H170.666667V640z"  horiz-adv-x="1024" />

    
    <glyph glyph-name="admin2" unicode="&#58906;" d="M1015.685 90.127l0.256 103.092s-68.03 13.465-69.16 18.027a267.372 267.372 0 0 1-4.148 14.828c7.956 14.776 46.275 47.232 46.275 47.232l-76.703 102.22s-49.736-40.96-62.085-46.827a218.65 218.65 0 0 1-18.238 6.082c-6.681 1.66-25.139 67.21-25.139 67.21l-103.265 0.84s-11.172-63.488-27.9-67.794a125.542 125.542 0 0 1-16.762-6.302c-12.38 6.031-62.08 47.605-62.08 47.605l-76.692-103.838s38.456-38.769 41.036-51.738a216.207 216.207 0 0 1-4.592-12.482c-16.533-5.766-63.473-15.058-63.473-15.058l0.21-103.086s54.62-11.377 64.993-20.521a207.77 207.77 0 0 1 7.28-17.388c-12.61-15.754-46.263-42.03-46.263-42.03l79.15-103.06s62.126 40.217 72.366 42.531a203.775 203.775 0 0 1 15.508-6.087c9.375-3.272 15.96-63.268 15.96-63.268l103.162-0.236s3.471 58.88 11.013 61.23a200.893 200.893 0 0 1 21.93 8.223c8.657-3.39 49.417-44.027 49.417-44.027l101.99 103.875s-37.862 26.137-48.301 40.223a213.924 213.924 0 0 1 7.751 18.017c3.518 9.37 66.504 22.507 66.504 22.507z m-262.43-78.12c-71.86 0-130.156 58.255-130.156 130.13 0 71.879 58.296 130.14 130.155 130.14 71.85 0 130.14-58.261 130.14-130.14 0-71.875-58.29-130.13-130.14-130.13zM422.158 407.771c118.37 0 238.884 116.429 238.884 239.647C661.043 770.6 546.345 896 427.93 896 309.612 896 191.908 767.57 191.908 644.413c0.005-123.228 111.892-236.64 230.251-236.64z m52.081-51.307H237.501c-59.212 0-147.993-30.853-177.571-123.234C30.346 140.826 30.346 140.826 0.722 48.456c-14.838-46.434 201.953-70.047 417.572-69.3 71.552 0.251 22.845 58.978 22.845 133.56 0 169.862 144.988 243.749 33.101 243.749z"  horiz-adv-x="1024" />

    
    <glyph glyph-name="Totalshopvisits" unicode="&#58965;" d="M183.895 601.399H45.978c-25.073 0-45.963-22.982-45.963-48.04V-128h229.858V553.267c0 27.165-20.904 48.039-45.978 48.039zM476.467 896H338.549c-25.073 0-45.962-22.981-45.962-50.162V-128h229.858V845.838C522.445 873.003 501.54 896 476.467 896z m292.571-543.35H631.121c-25.074 0-45.978-22.98-45.978-50.145V-128h229.873V302.505c0 27.165-20.905 50.146-45.978 50.146zM1061.61 601.4H923.692c-25.073 0-45.962-22.982-45.962-48.04V-128h229.842V553.267c0 27.165-20.89 48.039-45.962 48.039z"  horiz-adv-x="1107" />

    
    <glyph glyph-name="ziyuan" unicode="&#58923;" d="M0.713814 548.586685L193.351988 871.57669A54.259752 54.259752 0 0 0 240.227277 895.977526h738.446334a55.865071 55.865071 0 0 0 47.83848-25.68509l192.638174-317.531924c7.384463-11.879354-12.200418 4.815954-27.290408 4.815954H19.656568c-10.274036-0.321064-22.795517-17.016372-18.942754-8.989781zM617.798098 895.977526h32.106363v-338.40106h-32.106363zM1186.080712-127.89437H35.388685A32.106362 32.106362 0 0 0 0.713814-97.393326V548.265621a32.106362 32.106362 0 0 0 34.674871 30.501044h1150.692027a32.106362 32.106362 0 0 0 34.674871-30.501044v-645.658947a32.106362 32.106362 0 0 0-34.674871-30.501044zM833.23179 353.701065h-449.489073a32.106362 32.106362 0 0 0 0 64.212725h449.489073a32.106362 32.106362 0 0 0 0-64.212725z"  horiz-adv-x="1220" />

    
    <glyph glyph-name="test" unicode="&#58883;" d="M887.580444 379.335111c0 167.594667-141.596444 307.2-320.967111 307.2-174.648889 0-320.967111-134.997333-320.967111-307.2s141.653333-307.2 320.967111-307.2c174.648889 4.664889 320.967111 139.662222 320.967111 307.2z m-349.297777-186.197333c-42.439111 4.721778-80.213333 27.989333-108.544 55.921778-9.443556 9.272889-4.721778 18.602667 0 27.875555a30.492444 30.492444 0 0 0 28.387555 0c23.608889-23.324444 51.825778-41.870222 84.935111-46.535111 47.217778-9.272889 94.378667 9.329778 127.431111 46.535111 9.443556 9.386667 18.887111 9.386667 28.330667 0 9.443556-9.272889 9.443556-18.602667 0-27.932444-32.995556-37.205333-84.935111-60.472889-136.874667-60.472889-4.721778 4.664889-14.222222 4.664889-23.608888 4.664889z m61.44-218.737778c18.773333 4.721778 37.717333-4.664889 42.439111-23.267556l4.721778-46.535111c0-13.994667-14.222222-27.932444-37.774223-27.932444L538.339556-128c-23.608889 0-42.496 9.329778-42.496 23.267556l-4.721778 46.535111c0 13.994667 14.222222 27.932444 37.774222 27.932444l70.769778 4.664889z m415.288889 539.932444c70.826667-27.932444 117.987556-97.735111 122.766222-176.924444 0-162.872889-61.383111-162.872889-146.375111-181.475556-4.721778-4.664889-32.995556-60.529778-108.544-130.332444-75.491556-69.802667-179.313778-102.4-179.313778-102.4-9.443556-4.721778-23.608889 0-28.387556 13.937778-4.721778 9.329778 4.778667 27.989333 14.222223 27.989333 0 0 99.100444 32.540444 165.205333 93.070222 51.882667 46.535111 80.213333 74.467556 89.656889 97.735111V523.719111c-51.882667 144.270222-169.927111 302.478222-382.293334 302.478222-217.144889 0-372.906667-167.537778-372.906666-321.137777v-358.4C85.219556 151.324444 4.949333 151.324444 0.284444 337.464889c-4.721778 83.797333 51.882667 153.6 127.431112 181.589333C146.602667 719.075556 307.086222 891.335111 538.339556 896h23.608888c240.696889-4.721778 401.180444-195.527111 453.12-381.667556z"  horiz-adv-x="1137" />

    
    <glyph glyph-name="icon-test" unicode="&#58904;" d="M158.936 684.626v97.521c0 23.105 18.604 41.769 41.648 41.769 23.061 0 41.664-18.664 41.664-41.769v-97.521c0-23.135-18.604-41.829-41.664-41.829-23.043 0-41.648 18.694-41.648 41.829z m444.425-41.829c23.044 0 41.665 18.693 41.665 41.829v97.521c0 23.105-18.621 41.769-41.665 41.769-23.062 0-41.681-18.664-41.681-41.769v-97.521c0.001-23.135 18.62-41.829 41.681-41.829z m249.983-459.759H811.68V280.56c0 15.394-12.438 27.876-27.786 27.876-15.318 0-27.771-12.482-27.771-27.876v-125.366c0-15.393 12.452-27.876 27.771-27.876h69.45c15.333 0 27.786 12.483 27.786 27.876 0 15.362-12.453 27.844-27.786 27.844zM1020 162.153c0-130.825-105.683-236.869-236.106-236.869-92.898 0-173.181 54.072-211.649 132.389H75.592c-38.333 0-69.434 31.207-69.434 69.645v515.48c0 38.468 31.102 69.674 69.434 69.674h55.557v-27.846c0-38.468 31.103-69.675 69.435-69.675s69.45 31.207 69.45 69.675v27.846h263.877v-27.846c0-38.468 31.114-69.675 69.449-69.675 38.333 0 69.434 31.207 69.434 69.675v27.846h55.557c38.334 0 69.45-31.206 69.45-69.674v-244.493C921.683 391.043 1020 288.241 1020 162.153zM521.144 514.641H295.451v-62.565h156.663c-31.387-38.167-56.802-80.238-76.246-125.965-19.308-45.82-30.832-93.471-34.717-143.072h71.79c0.285 22.146 2.926 45.972 7.787 71.477 4.861 25.625 11.808 50.861 20.824 75.797 9.033 24.935 20.15 48.489 33.473 70.634 13.472 22.144 28.746 40.688 46.12 55.872v57.822z m443.314-352.488c0 99.892-80.974 181.12-180.564 181.12-99.576 0-180.532-81.229-180.532-181.12 0-99.921 80.956-181.117 180.532-181.117 99.59 0 180.564 81.196 180.564 181.117z m0 0"  horiz-adv-x="1024" />

    
    <glyph glyph-name="Muisc" unicode="&#59036;" d="M512 214.186667v-256c-117.76 0-218.453333 41.813333-302.08 125.457066C126.8736 166.7072 85.333333 267.093333 85.333333 384.853333h256c0-47.223467 16.503467-87.313067 49.493334-120.32 33.570133-33.570133 73.949867-50.346667 121.173333-50.346666z m0 597.333333c117.76 0 218.1632-41.5232 301.226667-124.586667C896.853333 603.306667 938.666667 502.903467 938.666667 385.706667H682.666667c0 46.6432-16.759467 86.749867-50.346667 120.32-33.006933 33.006933-73.079467 49.493333-120.32 49.493333v256zM512-58.897067c-121.890133 0-227.584 43.895467-314.146133 130.474667C111.872 157.576533 68.266667 262.980267 68.266667 384.853333s43.588267 227.549867 129.536 314.112C284.433067 784.9984 390.109867 828.586667 512 828.586667c121.9072 0 227.310933-43.605333 313.2928-129.5872C911.854933 612.437333 955.733333 507.0336 955.733333 385.706667a17.066667 17.066667 0 0 0-17.066666-17.066667H699.101867c-3.515733-44.885333-21.9136-83.950933-54.818134-116.258133-31.9488-32.494933-70.7072-50.858667-115.217066-54.545067v-222.2592a432.5888 432.5888 0 0 1 69.188266 7.901867 17.066667 17.066667 0 0 0 6.7072-33.467734 475.630933 475.630933 0 0 0-92.177066-8.874666c-0.273067-0.034133-0.529067-0.034133-0.785067-0.034134zM102.724267 367.786667c3.8912-105.284267 43.963733-196.744533 119.261866-272.0768 75.861333-75.861333 167.6288-116.241067 272.9472-120.149334V197.819733c-44.526933 3.6864-83.541333 22.033067-116.1728 54.647467-32.119467 32.119467-50.158933 70.843733-53.8112 115.319467H102.724267z m255.675733 17.066666c0-42.9056 14.557867-78.301867 44.4928-108.253866 30.532267-30.5152 66.218667-45.346133 109.1072-45.346134 42.837333 0 78.216533 14.7968 108.151467 45.243734C650.8032 306.619733 665.6 341.998933 665.6 384.853333v0.426667 0.426667c0 42.3424-14.830933 77.755733-45.346133 108.2368-29.934933 29.952-65.3312 44.509867-108.253867 44.509866-42.973867 0-78.677333-14.574933-109.2096-44.5952C372.992 463.530667 358.4 427.810133 358.4 384.853333z m-255.675733 17.066667H324.949333c3.6352 44.475733 21.6576 83.456 53.691734 116.0704 32.785067 32.238933 71.799467 50.2784 116.2752 53.9136V794.129067c-105.3696-3.8912-197.137067-43.9808-272.9984-119.313067-75.229867-75.776-115.319467-167.543467-119.1936-272.896z m596.292266 0.853333h222.2592c-3.925333 104.789333-44.288 196.266667-120.1152 272.093867C725.845333 750.1824 634.385067 790.254933 529.066667 794.129067V571.904c44.475733-3.6352 83.217067-21.691733 115.319466-53.8112 32.580267-32.5632 50.909867-71.287467 54.6304-115.319467zM512 282.453333c-27.904 0-52.343467 10.308267-72.6528 30.600534C419.601067 332.8 409.6 356.949333 409.6 384.853333c0 27.8016 9.949867 52.189867 29.5424 72.465067 20.667733 20.002133 45.056 29.934933 72.8576 29.934933 27.921067 0 52.0704-10.001067 71.799467-29.7472C604.091733 437.213867 614.4 412.757333 614.4 384.853333c0-28.0064-10.359467-52.224-30.805333-72.004266-19.336533-20.036267-43.5712-30.395733-71.594667-30.395734z m0 170.666667c-18.8928 0-34.850133-6.519467-48.708267-19.933867-13.038933-13.482667-19.5584-29.422933-19.5584-48.3328 0-18.7904 6.4512-34.372267 19.7632-47.6672 13.858133-13.8752 29.713067-20.599467 48.503467-20.599466 18.670933 0 34.2016 6.673067 47.4624 20.394666 14.1312 13.687467 20.804267 29.218133 20.804267 47.872 0 18.7904-6.741333 34.6624-20.599467 48.520534-13.277867 13.277867-28.8768 19.746133-47.6672 19.746133zM811.52 296.96h128v-84.48h-83.626667v-174.08c-0.580267-20.48-9.6768-39.5264-27.3408-57.173333-16.503467-17.066667-36.4032-25.6-59.733333-25.6-23.296 0-43.52 8.533333-60.586667 25.6-16.503467 16.4864-24.746667 36.4032-24.746666 59.733333 0 23.296 8.2432 43.52 24.746666 60.586667 17.066667 16.503467 37.290667 24.746667 60.586667 24.746666a85.333333 85.333333 0 0 0 42.666667-11.093333l0.034133 181.76z"  horiz-adv-x="1024" />

    
    </font>
</defs>
</svg>
