<?xml version="1.0" standalone="no"?><!DOCTYPE svg PUBLIC "-//W3C//DTD SVG 1.1//EN" "http://www.w3.org/Graphics/SVG/1.1/DTD/svg11.dtd"><svg class="icon" width="200px" height="200.00px" viewBox="0 0 1024 1024" version="1.1" xmlns="http://www.w3.org/2000/svg"><path fill="#bfbfbf" d="M512.2 320c88.4 0 160-71.6 160-160S600.6 0 512.2 0s-160 71.6-160 160 71.6 160 160 160z m271.2 112.4l85.6-60c29-20.2 36-60.2 15.6-89.2-20.2-29-60.2-36-89.2-15.6l-85.6 60c-117.8 82.6-277.8 82.6-395.6 0l-85.6-60c-29-20.4-69-13.2-89.2 15.6-20.4 29-13.4 68.8 15.6 89.2l85.6 60c34.8 24.4 72.4 42.8 111.2 57v80.4c-18.8 11.2-32 30.8-32 54.2v37.4c0 12.4 4.6 23.8 11.2 34L254.2 792c-18.2 22.8-18.6 55-1.2 78.4l96 128c12.6 16.8 31.8 25.6 51.2 25.6 13.4 0 26.8-4.2 38.4-12.8 28.4-21.2 34-61.4 12.8-89.6l-66.2-88.4 36.6-45.8c22.6 18 50.4 28.4 79.6 28.4h22c29.2 0 57-10.4 79.6-28.4l36.6 45.8-66.2 88.4c-21.2 28.2-15.6 68.4 12.8 89.6 11.6 8.6 25 12.8 38.4 12.8 19.6 0 38.6-8.8 51.2-25.6l96-128c17.6-23.4 17-55.6-1.2-78.4l-77.2-96.6c6.6-10.2 11.2-21.6 11.2-34V624c0-23.4-13.2-43-32-54.2v-80.4c38.6-14.2 76-32.6 110.8-57zM640.2 661.4l-71.8 71.8c-12 12-28.2 18.8-45.2 18.8h-22c-17 0-33.2-6.6-45.2-18.8L384.2 661.4V624h256v37.4z" /></svg>