<?xml version="1.0" standalone="no"?><!DOCTYPE svg PUBLIC "-//W3C//DTD SVG 1.1//EN" "http://www.w3.org/Graphics/SVG/1.1/DTD/svg11.dtd"><svg class="icon" width="200px" height="200.00px" viewBox="0 0 1024 1024" version="1.1" xmlns="http://www.w3.org/2000/svg"><path fill="#bfbfbf" d="M852.579618 341.304891c0-197.786184-143.518707-341.304891-341.304891-341.304891s-341.304891 143.518707-341.262228 339.001083c-0.383968 7.423381-9.215232 184.304641 43.857678 396.638947C268.47896 953.861845 340.750271 1023.914674 511.274727 1023.914674s242.795767-70.052829 297.361887-288.274644c53.115574-212.334305 44.28431-389.215565 43.943004-394.335139z m-138.313807 416.434631l-139.03908-69.498209 169.841847-63.696025a1242.989751 1242.989751 0 0 1-30.802767 133.194234zM255.296059 341.304891c0-148.339638 107.63903-255.978668 255.978668-255.978668s255.978668 107.63903 256.021332 258.239813c0.042663 1.109241 3.583701 76.281643-8.36197 184.603283l-287.933339 107.937672-206.958753-103.458045c-12.500292-110.92409-8.831264-188.656279-8.745938-191.344055z m255.978668 597.28356c-112.758603 0-163.698358-20.222315-214.59545-223.682693a1315.474377 1315.474377 0 0 1-17.150571-79.140072l405.768853 202.863095C644.468961 927.282726 594.851762 938.588451 511.274727 938.588451z"  /><path fill="#bfbfbf" d="M511.274727 554.620448c117.622198 0 213.315557-95.693359 213.315557-213.315557s-95.693359-213.315557-213.315557-213.315557-213.315557 95.693359-213.315557 213.315557 95.736022 213.315557 213.315557 213.315557z m0-341.304891c70.564786 0 127.989334 57.424548 127.989334 127.989334s-57.424548 127.989334-127.989334 127.989334-127.989334-57.424548-127.989334-127.989334 57.424548-127.989334 127.989334-127.989334z"  /><path fill="#bfbfbf" d="M511.274727 383.968003m-42.663111 0a42.663111 42.663111 0 1 0 85.326223 0 42.663111 42.663111 0 1 0-85.326223 0Z"  /></svg>