<?xml version="1.0" standalone="no"?><!DOCTYPE svg PUBLIC "-//W3C//DTD SVG 1.1//EN" "http://www.w3.org/Graphics/SVG/1.1/DTD/svg11.dtd"><svg class="icon" width="200px" height="200.00px" viewBox="0 0 1024 1024" version="1.1" xmlns="http://www.w3.org/2000/svg"><path fill="#bfbfbf" d="M844.196756 289.957168q-9.129911-9.129911-20.549799-14.839855 15.979844-25.109755 17.129832-57.079442v-36.529644q-1.149989-46.799543-32.539682-77.619242-31.389693-30.829699-77.059247-31.969687H604.469097q-9.129911-2.279978-29.109716-19.409811-19.979805-17.129833-37.099637-39.94961Q526.839855 0 508.580033 0q-18.269822 0-29.68971 14.839855-14.839855 20.549799-31.389693 37.669632-16.549838 17.129833-23.399772 19.409811H292.82214q-46.809543 1.139989-77.629241 31.969687-30.819699 30.829699-31.969688 77.619242 0 15.979844 10.279899 26.249744 10.2799 10.2799 26.259744 10.2799 15.989844 0 26.259743-10.2799 10.2799-10.2699 10.2799-26.249744t10.2699-26.249743q10.2699-10.2799 26.259743-10.2799h131.278718q23.969766-1.139989 46.229549-16.549838 22.259783-15.40985 40.529604-35.959649 19.40981 19.40981 43.949571 35.389654 24.53976 15.979844 49.659515 17.119833h126.708762q14.839855 0 25.119755 10.2799 10.2699 10.2799 11.409889 26.249743v36.529644q-1.139989 15.979844-11.409889 26.259743-10.2799 10.2699-25.119755 10.2699H292.83214l-5.709944 1.139989h-27.399732q-49.089521 1.149989-81.049209 34.259665-31.969688 33.099677-33.099677 83.329187v533.114793q1.139989 49.089521 35.389655 83.339186t83.339186 34.249666h496.58515q47.939532 0 82.189198-34.249666t35.389654-83.339186V373.296355q-1.139989-47.949532-34.249665-83.339187z m-38.809621 616.45398q0 18.259822-13.129872 31.389694-13.129872 13.129872-31.389693 13.129872H264.282419q-19.40981 0-31.969688-13.129872-12.559877-13.129872-13.699866-31.389694V373.296355q1.139989-19.40981 11.979883-31.969688 10.839894-12.559877 29.109716-12.559878h501.155106q18.259822 0 31.389693 13.129872 13.129872 13.129872 13.129872 31.399694v533.114793z m-476.035351-359.596488h109.588929q15.979844 0 26.259744-10.2699 10.2699-10.2799 10.2699-26.259743 0-15.979844-10.2699-26.249744-10.2799-10.2699-26.259744-10.2699H329.351784q-15.989844 0-26.259744 10.2699-10.2699 10.2799-10.2699 26.249744 0 15.979844 10.2699 26.259743 10.2699 10.2699 26.259744 10.2699zM512 619.873947H329.351784q-15.989844 0-26.259744 10.269899-10.2699 10.2699-10.2699 26.249744t10.2699 26.249744q10.2699 10.2799 26.259744 10.279899H512q15.979844 0 26.249744-10.279899 10.2699-10.2699 10.269899-26.249744t-10.269899-26.249744q-10.2699-10.2699-26.249744-10.269899zM438.940713 765.99252H329.351784q-15.989844 0-26.259744 10.269899-10.2699 10.2699-10.2699 26.259744 0 15.989844 10.2699 26.249744 10.2699 10.2699 26.259744 10.269899h109.588929q15.979844 0 26.259744-10.269899 10.2699-10.2699 10.2699-26.249744 0-15.989844-10.2699-26.259744Q454.920557 765.99252 438.940713 765.99252z" /></svg>