<?xml version="1.0" standalone="no"?><!DOCTYPE svg PUBLIC "-//W3C//DTD SVG 1.1//EN" "http://www.w3.org/Graphics/SVG/1.1/DTD/svg11.dtd"><svg class="icon" width="200px" height="200.00px" viewBox="0 0 1024 1024" version="1.1" xmlns="http://www.w3.org/2000/svg"><path fill="#bfbfbf" d="M371.710554 484.012767c11.605288 12.060398 18.801705 28.870999 18.801705 47.445148 0 36.693191-28.074557 66.417519-62.691312 66.41752-34.645199 0-62.719756-29.752773-62.719756-66.41752 0-36.693191 28.074557-66.445964 62.719756-66.445963 17.0666 0 32.597207 7.253305 43.889607 19.000815m373.673214 0c11.605288 12.060398 18.801705 28.870999 18.801705 47.445148 0 36.693191-28.074557 66.417519-62.719756 66.41752-34.616754 0-62.691312-29.752773-62.691312-66.41752 0-36.693191 28.074557-66.445964 62.691312-66.445963 17.095045 0 32.597207 7.253305 43.918051 19.000815m-84.223673-417.562821a82.773011 82.773011 0 0 1 58.595328 26.168787c33.564314 35.100308 33.848757 92.444085 0.65422 127.999502a82.118792 82.118792 0 0 1-120.888419 0.796442 30.150994 30.150994 0 0 0-44.373161 0.284443 34.616754 34.616754 0 0 0 0.284444 46.933151c58.197107 60.984652 152.063409 60.387321 209.577851-1.279995 57.571332-61.667316 57.030889-161.080262-1.223106-222.03647C736.310025 16.587029 700.0435 0.715091 662.24098 0.003982c-17.351044-0.312888-31.601655 14.3075-31.914542 32.654095-0.284443 18.318151 13.511059 33.450537 30.833657 33.763425m65.36508 610.614514c-1.848882 3.982207-3.925318 8.078191-6.200865 12.287952-42.438946 78.620139-121.286639 128.11328-208.326301 128.11328-91.761421 0-174.1931-55.096675-214.584054-140.515009-7.765303-16.383936-26.595452-23.03991-42.097615-14.791054-15.473718 8.191968-21.731471 28.15989-13.994612 44.543827 50.915358 107.690248 154.936286 177.2082 270.676281 177.2082 109.766684 0 209.264964-62.492201 262.768756-161.563817 2.844433-5.290646 5.489756-10.524404 7.935969-15.729716 7.67997-16.440825 1.365328-36.380303-14.136834-44.515383-15.502162-8.163524-34.332311-1.450661-42.040725 14.96172M568.374679 77.657014a425.470345 425.470345 0 0 0-49.777585-2.901322c-240.923508 0-438.440962 201.812549-447.713814 456.076448l19.740368-29.582107C36.351859 524.090833 0 579.870172 0 642.789038c0 84.109895 64.369527 152.319408 143.786107 152.319408 3.982207 0 7.964413-0.170666 11.861288-0.511998l-2.55999-33.109205-27.477227 15.985716C203.775208 928.227928 353.278626 1024 518.625539 1024c163.270476 0 311.124123-93.325859 390.114038-241.094174l-26.936784 16.839046C960.565153 798.834653 1023.996018 730.938029 1023.996018 647.425464c0-55.608673-28.444334-106.012032-73.386381-132.77815l16.014159 28.529667c-1.194662-99.327614-31.288767-193.848135-85.361445-272.610495-10.183072-14.819498-29.809662-18.119041-43.804274-7.338639-13.994612 10.808847-17.095045 31.573211-6.911974 46.421153 46.478041 67.697515 72.333941 148.906088 73.357937 234.381311l0.227555 19.143037 15.758161 9.38663c25.372346 15.103941 41.386506 43.519831 41.386506 74.865486 0 47.103817-35.754528 85.38989-80.184577 85.901889l-18.033708 0.227554-8.903076 16.611491c-67.953514 127.146172-195.12813 207.387638-335.557807 207.387638-142.221669 0-270.761614-82.317902-338.004019-212.052509l-9.78485-18.858593-20.252366 1.735105c-2.218658 0.19911-4.46576 0.284443-6.769752 0.284443-44.771381 0-81.066351-38.456739-81.066351-85.901888 0-35.470084 20.47992-66.929517 51.086024-79.814801l18.943926-7.992858 0.796441-21.589249c7.964413-218.62315 177.890864-392.190475 385.050947-392.190475 14.50661 0 28.81411 0.824886 42.865611 2.474657 17.208822 2.047992 32.710984-11.09329 34.616755-29.326108 1.934215-18.232818-10.467515-34.645199-27.676337-36.693191" /></svg>