<?xml version="1.0" standalone="no"?><!DOCTYPE svg PUBLIC "-//W3C//DTD SVG 1.1//EN" "http://www.w3.org/Graphics/SVG/1.1/DTD/svg11.dtd"><svg class="icon" width="200px" height="200.00px" viewBox="0 0 1024 1024" version="1.1" xmlns="http://www.w3.org/2000/svg"><path fill="#bfbfbf" d="M512 256c25.6 0 51.2-25.6 51.2-51.2s-25.6-51.2-51.2-51.2-51.2 25.6-51.2 51.2S486.4 256 512 256zM1024 102.4V0H0v102.4h51.2v460.8H0v102.4h236.8l-134.4 320 96 38.4 64-153.6H768l64 153.6 96-38.4-134.4-320H1024V563.2h-51.2V102.4h51.2zM723.2 768H300.8l44.8-102.4h332.8L723.2 768z m147.2-428.8l-153.6-160L512 416 364.8 230.4 153.6 441.6V102.4h716.8v236.8z" /></svg>