<?xml version="1.0" standalone="no"?><!DOCTYPE svg PUBLIC "-//W3C//DTD SVG 1.1//EN" "http://www.w3.org/Graphics/SVG/1.1/DTD/svg11.dtd"><svg class="icon" width="200px" height="197.87px" viewBox="0 0 1035 1024" version="1.1" xmlns="http://www.w3.org/2000/svg"><path fill="#bfbfbf" d="M130.588416 542.72 130.588416 614.4l235.52 0 0-74.24 87.04 0c0 0 35.84 0 35.84 35.84s0 399.36 0 399.36 5.12 46.08-46.08 46.08S46.108416 1024 46.108416 1024 0.028416 1024 0.028416 977.92c0-58.88 0-396.8 0-396.8s-2.56-38.4 40.96-38.4S130.588416 542.72 130.588416 542.72zM675.868416 542.72 675.868416 614.4l235.52 0 0-74.24L998.428416 540.16c0 0 35.84 0 35.84 35.84s0 399.36 0 399.36 5.12 46.08-46.08 46.08c-48.64 0-396.8 0-396.8 0s-46.08 2.56-46.08-46.08c0-58.88 0-396.8 0-396.8s-2.56-38.4 40.96-38.4S675.868416 542.72 675.868416 542.72zM675.868416 0l0 74.24 235.52 0L911.388416 0 998.428416 0c0 0 35.84 0 35.84 35.84s0 399.36 0 399.36 5.12 46.08-46.08 46.08c-48.64 0-396.8 0-396.8 0s-46.08 2.56-46.08-46.08c0-58.88 0-396.8 0-396.8S542.748416 0 583.708416 0 675.868416 0 675.868416 0z" /></svg>