<?xml version="1.0" standalone="no"?><!DOCTYPE svg PUBLIC "-//W3C//DTD SVG 1.1//EN" "http://www.w3.org/Graphics/SVG/1.1/DTD/svg11.dtd"><svg class="icon" width="200px" height="200.00px" viewBox="0 0 1024 1024" version="1.1" xmlns="http://www.w3.org/2000/svg"><path fill="#bfbfbf" d="M440.408475 90.38352H109.311615c-10.450003 0-18.919908 8.676613-18.919909 19.379373v339.15028c0 10.70276 8.470929 19.379373 18.919909 19.379373h331.09686c10.450003 0 18.919908-8.677637 18.919908-19.379373V109.763916c-0.001023-10.704806-8.469905-19.380396-18.919908-19.380396zM440.408475 555.705408H109.311615c-10.450003 0-18.919908 8.676613-18.919909 19.380396V914.235061c0 10.70276 8.470929 19.380396 18.919909 19.380396h331.09686c10.450003 0 18.919908-8.67866 18.919908-19.380396V575.08785c-0.001023-10.705829-8.469905-19.382443-18.919908-19.382442zM739.507574 461.872323a13.390985 13.390985 0 0 0 19.263739 0l168.568207-172.666549c5.320169-5.449106 5.320169-14.284331 0-19.733436L758.771313 96.80579a13.395078 13.395078 0 0 0-19.264762 0L570.94039 269.472338c-5.320169 5.450129-5.320169 14.283308 0 19.732413L739.507574 461.872323zM914.686339 555.705408H583.591525c-10.450003 0-18.919908 8.676613-18.919908 19.380396V914.235061c0 10.70276 8.470929 19.380396 18.919908 19.380396H914.686339c10.450003 0 18.920932-8.67866 18.920931-19.380396V575.08785c0.001023-10.705829-8.470929-19.382443-18.920931-19.382442z" /></svg>