<?xml version="1.0" standalone="no"?><!DOCTYPE svg PUBLIC "-//W3C//DTD SVG 1.1//EN" "http://www.w3.org/Graphics/SVG/1.1/DTD/svg11.dtd"><svg class="icon" width="200px" height="200.00px" viewBox="0 0 1024 1024" version="1.1" xmlns="http://www.w3.org/2000/svg"><path fill="#bfbfbf" d="M0.282122 937.57649a85.086041 85.086041 0 0 0 85.148735 85.138286h851.278367a85.086041 85.086041 0 0 0 85.159184-85.138286V703.393959a85.086041 85.086041 0 0 0-85.159184-85.138286H681.440653V394.908735a53.195755 53.195755 0 0 0-106.39151 0v223.482775H85.430857a85.086041 85.086041 0 0 0-85.148735 85.148735v234.036245M106.684082 820.485224a53.195755 53.195755 0 1 1 53.206204 53.185307 53.289796 53.289796 0 0 1-53.206204-53.185307m191.68653 0a53.195755 53.195755 0 1 1 106.39151 0 53.195755 53.195755 0 0 1-106.39151 0M628.234449 171.425959c-123.506939 0-223.482776 99.975837-223.482776 223.482776a53.195755 53.195755 0 0 0 106.391511 0c0-64.752327 52.349388-117.091265 117.091265-117.091266 64.752327 0 117.091265 52.349388 117.091265 117.091266a53.195755 53.195755 0 0 0 106.39151 0c0-123.506939-100.122122-223.482776-223.482775-223.482776M628.234449 1.149388c-217.49551 0-393.769796 176.274286-393.769796 393.759347a53.195755 53.195755 0 0 0 106.39151 0c0-158.730449 128.501551-287.378286 287.378286-287.378286 158.730449 0 287.378286 128.501551 287.378286 287.378286a53.195755 53.195755 0 0 0 106.39151 0C1021.857959 177.277388 845.729959 1.149388 628.234449 1.149388" /></svg>