<?xml version="1.0" standalone="no"?><!DOCTYPE svg PUBLIC "-//W3C//DTD SVG 1.1//EN" "http://www.w3.org/Graphics/SVG/1.1/DTD/svg11.dtd"><svg t="1587610896416" class="icon" viewBox="0 0 1533 1024" version="1.1" xmlns="http://www.w3.org/2000/svg" p-id="3331" xmlns:xlink="http://www.w3.org/1999/xlink" width="299.4140625" height="200"><defs><style type="text/css"></style></defs><path d="M1459.695218 586.774526C1357.863232 712.907621 1085.122064 1006.123766 752.326135 1006.123766c-332.795929 0-605.511245-293.216144-707.291527-419.271684a122.100146 122.100146 0 0 1 0-154.518858C146.737333 306.251833 419.426797 12.983984 752.326135 12.983984c332.92519 0 605.588801 293.267849 707.369083 419.34924a122.177702 122.177702 0 0 1 0 154.441302z m-97.876593-77.272356C1291.267853 421.992326 1038.691435 136.635264 752.326135 136.635264c-286.339448 0-538.915866 285.357063-609.49249 372.866906 70.576624 87.664957 323.256451 372.970315 609.49249 372.970316 286.236039 0 538.941718-285.305358 609.570047-372.78935l-0.077557-0.180966z m-609.49249 249.293183c-138.025127 0-250.249716-110.906124-250.249716-247.30256 0-136.422288 112.224589-247.328412 250.249716-247.328412 28.540877 0 56.513004 4.705108 83.218371 14.011915a61.709305 61.709305 0 0 1 38.183764 78.901047c-11.555953 32.186043-47.232049 48.86074-79.85758 37.744276a125.848721 125.848721 0 0 0-41.544555-7.005958c-68.973785 0-125.124858 55.504767-125.124858 123.677132s56.151073 123.65128 125.124858 123.65128c68.973785 0 125.124858-55.478914 125.124858-123.65128 0-34.176666 27.99798-61.838566 62.562429-61.838566 34.590302 0 62.562429 27.6619 62.562429 61.838566 0 136.396436-112.224589 247.30256-250.249716 247.30256z" p-id="3332"></path></svg>