<?xml version="1.0" standalone="no"?><!DOCTYPE svg PUBLIC "-//W3C//DTD SVG 1.1//EN" "http://www.w3.org/Graphics/SVG/1.1/DTD/svg11.dtd"><svg class="icon" width="200px" height="200.00px" viewBox="0 0 1024 1024" version="1.1" xmlns="http://www.w3.org/2000/svg"><path fill="#bfbfbf" d="M827.037531 339.281844c-0.002053-0.002053 0.12623-0.004105 0.12623-0.007184l0-0.001026c0-0.138545 0.1837-0.275037 0.047208-0.409477L650.028591 164.501936c-0.046182-0.045155-0.407424-0.090311-0.407424-0.135466 0 0.002053 0 0.00821 0 0.007184-2.052516-2.731898-5.843512-4.277442-10.108639-4.277442l-0.002053 0c-0.017446 0-0.031814 0-0.047208 0L240.43167 160.096212c-26.467188 0-48.521467 21.335899-48.521467 47.803087l0 607.997178c0 26.467188 22.054279 48.212564 48.521467 48.212564l543.997691 0c26.467188 0 46.839431-21.745376 46.839431-48.212564L831.268791 350.261776c0-0.00821 0-0.017446 0-0.02463C831.268791 345.995622 829.737615 342.140998 827.037531 339.281844zM449.500902 722.776925C449.500902 747.587733 428.729445 767.64081 403.917611 767.64081l-7.634332 0C371.471445 767.64081 350.980156 747.590812 350.980156 722.735875L350.980156 607.219274C350.980156 582.405388 371.427316 562.389256 396.283279 562.389256l7.634332 0C428.731497 562.389256 449.500902 582.363311 449.500902 607.219274L449.500902 722.776925zM672.198837 722.671221C672.198837 747.485107 651.538216 767.64081 626.682253 767.64081l-7.633305 0C594.236087 767.64081 573.678092 747.485107 573.678092 722.628118L573.678092 607.110491C573.678092 582.298657 594.192985 562.389256 619.047921 562.389256l7.636384 0c24.811834 0 45.514532 19.866298 45.514532 44.721235L672.198837 722.671221zM713.249148 670.225344c0 6.714805-5.642365 12.115999-12.317146 12.115999-6.714805 0-12.313041-5.444297-12.313041-12.115999l0-81.223171c0-100.275646-80.309802-182.069417-181.112944-179.787019C410.392271 411.36619 334.560032 493.774688 334.560032 590.932564l0 79.29278c0 6.671702-5.620814 12.072896-12.292516 12.115999-6.717883 0-12.337671-5.444297-12.337671-12.115999l0-84.690896c0-110.066146 88.190435-199.543508 197.773213-201.607312C620.756641 381.776099 713.249148 477.003584 713.249148 590.055113L713.249148 670.225344zM654.854055 349.953899c-8.822738 0-16.521724-7.290535-16.521724-16.112247L638.332331 175.113442 814.950267 349.953899 654.854055 349.953899z" /></svg>