<?xml version="1.0" standalone="no"?><!DOCTYPE svg PUBLIC "-//W3C//DTD SVG 1.1//EN" "http://www.w3.org/Graphics/SVG/1.1/DTD/svg11.dtd"><svg class="icon" width="200px" height="160.00px" viewBox="0 0 1280 1024" version="1.1" xmlns="http://www.w3.org/2000/svg"><path fill="#bfbfbf" d="M1172.48 25.6H585.4208c-49.7664 0-90.4192 40.704-90.4192 90.4192v587.1616a90.624 90.624 0 0 0 90.4192 90.4192h292.6592a89.4464 89.4464 0 0 1 178.6368 0H1172.48c49.664 0 90.4192-40.704 90.4192-90.4192V116.0192C1262.9504 66.304 1222.2464 25.6 1172.48 25.6zM928.1536 640c-100.096 0-181.248 80.2304-181.248 179.2s81.152 179.2 181.248 179.2c100.0448 0 181.1968-80.2304 181.1968-179.2s-81.152-179.2-181.248-179.2z m0 88.2176c50.7904 0 91.9552 40.7552 91.9552 90.9824 0 50.2272-41.1648 90.9824-91.9552 90.9824A91.4944 91.4944 0 0 1 836.096 819.2c0-50.2272 41.1648-90.9824 92.0064-90.9824zM317.7472 640c-100.096 0-181.248 80.2304-181.248 179.2s81.152 179.2 181.248 179.2c100.0448 0 181.1968-80.2304 181.1968-179.2s-81.152-179.2-181.248-179.2z m0 88.2176c50.7904 0 91.9552 40.7552 91.9552 90.9824 0 50.2272-41.1648 90.9824-91.9552 90.9824A91.4944 91.4944 0 0 1 225.7408 819.2c0-50.2272 41.1648-90.9824 92.0064-90.9824zM51.712 793.6h169.728c9.6256 0 17.5104-6.2976 17.5104-14.0288v-74.3424c0-7.68-7.8848-14.0288-17.5104-14.0288H51.6608c-9.6256 0-17.5104 6.2976-17.5104 14.0288v74.3424c0 7.68 7.8848 14.0288 17.5104 14.0288zM470.1184 493.9776H85.3504V691.2h384.768V493.9776zM494.9504 179.2H353.536v94.976h141.4144V179.2zM187.7504 435.2h-102.4v51.2h102.4zM344.0128 179.2L85.3504 438.1696l86.0672 29.5424 197.5296-195.4816L344.064 179.2z m458.1376 335.2064H440.32V793.6h361.8304v-279.1936z" /></svg>