<?xml version="1.0" standalone="no"?><!DOCTYPE svg PUBLIC "-//W3C//DTD SVG 1.1//EN" "http://www.w3.org/Graphics/SVG/1.1/DTD/svg11.dtd"><svg class="icon" width="200px" height="200.00px" viewBox="0 0 1024 1024" version="1.1" xmlns="http://www.w3.org/2000/svg"><path fill="#bfbfbf" d="M481 92q-22-13-69-38T326 7q-31-14-44 9.5t-16 52q-3 28.5 3 53.5t38 26h163q33-1 34.5-20T481 92z m286-24q-2-28-15-52t-44-9q-39 21-86 46.5T554 91q-26 17-24.5 36t34.5 21h163q32-2 38.5-27t1.5-53zM1 268v101q-1 28 12 42.5T63 426h371V217H62q-37 0-49.5 12.5T1 268z m1023 103v-99q1-26-13.5-40.5T958 217H593v209h368q37 0 50.5-13.5T1024 371zM43 503v398q0 59 35.5 91t108.5 32h245V503H43z m929 0H593v521h237q73-1 107.5-34.5T972 897q1-76 1-226l-1-168z" /></svg>