<?xml version="1.0" standalone="no"?><!DOCTYPE svg PUBLIC "-//W3C//DTD SVG 1.1//EN" "http://www.w3.org/Graphics/SVG/1.1/DTD/svg11.dtd"><svg class="icon" width="200px" height="200.00px" viewBox="0 0 1024 1024" version="1.1" xmlns="http://www.w3.org/2000/svg"><path fill="#bfbfbf" d="M174.7862496 640.36956693l0 167.2734688 327.9873312 98.49343467L502.77358187 636.54304107l-43.73162987 91.2897856L174.7862496 640.36956693zM869.39583787 390.00597973l133.52355093-153.06081173L660.57720427 143.2960224l-133.56640214 150.13181013-133.5661888-150.13181013L51.10136213 236.94516907l133.52482987 153.06081173 342.38482347-96.11765867L869.39583787 390.00597973zM527.01101547 483.93930667l-342.38482347-93.93332694-95.11631147 189.13917654 342.19998827 94.02307946 95.30093227-188.49086933 95.3011456 188.49086933 342.2002016-94.02307946-95.11631147-189.13917654L527.01101547 483.93930667zM551.2480224 636.54304107l0 269.59342933 327.9873312-98.49343467 0-167.2734688L594.9798656 727.83282667 551.2480224 636.54304107z" /></svg>