<?xml version="1.0" standalone="no"?><!DOCTYPE svg PUBLIC "-//W3C//DTD SVG 1.1//EN" "http://www.w3.org/Graphics/SVG/1.1/DTD/svg11.dtd"><svg class="icon" width="200px" height="100.00px" viewBox="0 0 2048 1024" version="1.1" xmlns="http://www.w3.org/2000/svg"><path d="M478.72 486.4h-30.72v-56.32h28.16c15.36 0 25.6 2.56 33.28 5.12 7.68 5.12 10.24 12.8 10.24 20.48 0 10.24-2.56 17.92-10.24 20.48-5.12 7.68-15.36 10.24-30.72 10.24zM514.56 537.6c7.68 5.12 10.24 12.8 10.24 23.04s-2.56 17.92-10.24 25.6c-7.68 5.12-17.92 10.24-33.28 10.24h-35.84v-66.56h33.28c17.92 0 30.72 2.56 35.84 7.68z" fill="#727272" /><path d="M716.8 550.4c-17.92 0-28.16 2.56-35.84 10.24-7.68 5.12-10.24 12.8-10.24 23.04 0 7.68 2.56 15.36 7.68 17.92 5.12 2.56 10.24 5.12 17.92 5.12 12.8 0 20.48-2.56 28.16-10.24 7.68-7.68 12.8-15.36 12.8-28.16v-15.36l-20.48-2.56z m0 0c-17.92 0-28.16 2.56-35.84 10.24-7.68 5.12-10.24 12.8-10.24 23.04 0 7.68 2.56 15.36 7.68 17.92 5.12 2.56 10.24 5.12 17.92 5.12 12.8 0 20.48-2.56 28.16-10.24 7.68-7.68 12.8-15.36 12.8-28.16v-15.36l-20.48-2.56z m0 0c-17.92 0-28.16 2.56-35.84 10.24-7.68 5.12-10.24 12.8-10.24 23.04 0 7.68 2.56 15.36 7.68 17.92 5.12 2.56 10.24 5.12 17.92 5.12 12.8 0 20.48-2.56 28.16-10.24 7.68-7.68 12.8-15.36 12.8-28.16v-15.36l-20.48-2.56z m709.12-58.88c-5.12-7.68-15.36-12.8-28.16-12.8-10.24 0-17.92 2.56-25.6 10.24-7.68 7.68-10.24 17.92-12.8 30.72H1433.6c0-12.8-2.56-20.48-7.68-28.16z m0 0c-5.12-7.68-15.36-12.8-28.16-12.8-10.24 0-17.92 2.56-25.6 10.24-7.68 7.68-10.24 17.92-12.8 30.72H1433.6c0-12.8-2.56-20.48-7.68-28.16zM716.8 550.4c-17.92 0-28.16 2.56-35.84 10.24-7.68 5.12-10.24 12.8-10.24 23.04 0 7.68 2.56 15.36 7.68 17.92 5.12 2.56 10.24 5.12 17.92 5.12 12.8 0 20.48-2.56 28.16-10.24 7.68-7.68 12.8-15.36 12.8-28.16v-15.36l-20.48-2.56zM0 0v1024h2048V0H0z m555.52 619.52c-15.36 12.8-38.4 20.48-69.12 20.48h-94.72V384h79.36c33.28 0 61.44 5.12 76.8 15.36 17.92 10.24 25.6 25.6 25.6 51.2 0 15.36-2.56 28.16-10.24 35.84-7.68 10.24-15.36 15.36-28.16 17.92v2.56l23.04 7.68c7.68 5.12 12.8 10.24 15.36 17.92 5.12 7.68 5.12 17.92 5.12 33.28 2.56 23.04-5.12 40.96-23.04 53.76z m235.52 20.48h-38.4l-10.24-25.6c-7.68 10.24-17.92 17.92-25.6 23.04-10.24 5.12-23.04 7.68-38.4 7.68-17.92 0-30.72-5.12-43.52-15.36-10.24-10.24-17.92-25.6-17.92-46.08s7.68-35.84 23.04-46.08c15.36-10.24 35.84-15.36 66.56-15.36h33.28v-7.68c0-10.24-2.56-17.92-7.68-23.04-5.12-5.12-12.8-7.68-23.04-7.68s-17.92 2.56-28.16 5.12c-10.24 2.56-17.92 5.12-28.16 10.24l-17.92-35.84c10.24-5.12 23.04-10.24 35.84-12.8 12.8-2.56 25.6-5.12 40.96-5.12 25.6 0 46.08 5.12 58.88 17.92 15.36 10.24 20.48 28.16 20.48 51.2V640z m235.52 0H972.8v-115.2c0-15.36-2.56-25.6-7.68-30.72-5.12-7.68-12.8-10.24-23.04-10.24-15.36 0-28.16 5.12-33.28 17.92-5.12 10.24-7.68 28.16-7.68 48.64V640H844.8v-194.56h40.96l7.68 25.6h2.56c5.12-10.24 15.36-17.92 25.6-23.04 10.24-5.12 23.04-7.68 35.84-7.68 20.48 0 38.4 5.12 51.2 17.92 12.8 10.24 17.92 28.16 17.92 53.76v128z m235.52 0h-53.76v-115.2c0-15.36-2.56-25.6-7.68-30.72-5.12-7.68-12.8-10.24-23.04-10.24-15.36 0-28.16 5.12-33.28 17.92-5.12 10.24-10.24 28.16-10.24 48.64V640h-53.76v-194.56h40.96l7.68 25.6h2.56c5.12-10.24 15.36-17.92 25.6-23.04 10.24-5.12 23.04-7.68 33.28-7.68 20.48 0 38.4 5.12 51.2 17.92 12.8 10.24 17.92 28.16 17.92 53.76v128z m222.72-84.48h-125.44c0 15.36 5.12 25.6 12.8 35.84 7.68 7.68 20.48 12.8 35.84 12.8 12.8 0 23.04-2.56 33.28-2.56 10.24-2.56 20.48-7.68 30.72-12.8v40.96c-10.24 5.12-20.48 7.68-30.72 10.24-10.24 2.56-23.04 2.56-38.4 2.56-20.48 0-35.84-2.56-51.2-10.24-15.36-7.68-25.6-17.92-35.84-33.28-7.68-15.36-12.8-33.28-12.8-56.32 0-23.04 5.12-40.96 12.8-56.32 7.68-15.36 17.92-25.6 33.28-35.84 12.8-7.68 30.72-10.24 48.64-10.24 25.6 0 48.64 7.68 64 23.04 15.36 15.36 23.04 38.4 23.04 66.56v25.6z m166.4-64h-15.36c-10.24 0-17.92 2.56-25.6 5.12-7.68 2.56-15.36 7.68-20.48 15.36-5.12 7.68-7.68 17.92-7.68 28.16V640h-53.76v-194.56h40.96l7.68 33.28h2.56c5.12-10.24 12.8-17.92 23.04-25.6 10.24-7.68 20.48-10.24 35.84-10.24h17.92l-5.12 48.64z m-253.44-12.8c-10.24 0-17.92 2.56-25.6 10.24-7.68 7.68-10.24 17.92-12.8 30.72H1433.6c0-12.8-2.56-20.48-10.24-30.72-5.12-7.68-12.8-10.24-25.6-10.24z m-716.8 79.36c-7.68 5.12-10.24 12.8-10.24 23.04 0 7.68 2.56 15.36 7.68 17.92 5.12 2.56 10.24 5.12 17.92 5.12 12.8 0 20.48-2.56 28.16-10.24 7.68-7.68 12.8-15.36 12.8-28.16v-15.36H716.8c-17.92 0-30.72 2.56-35.84 7.68z m35.84-7.68c-17.92 0-28.16 2.56-35.84 10.24-7.68 5.12-10.24 12.8-10.24 23.04 0 7.68 2.56 15.36 7.68 17.92 5.12 2.56 10.24 5.12 17.92 5.12 12.8 0 20.48-2.56 28.16-10.24 7.68-7.68 12.8-15.36 12.8-28.16v-15.36l-20.48-2.56z m0 0c-17.92 0-28.16 2.56-35.84 10.24-7.68 5.12-10.24 12.8-10.24 23.04 0 7.68 2.56 15.36 7.68 17.92 5.12 2.56 10.24 5.12 17.92 5.12 12.8 0 20.48-2.56 28.16-10.24 7.68-7.68 12.8-15.36 12.8-28.16v-15.36l-20.48-2.56z m0 0c-17.92 0-28.16 2.56-35.84 10.24-7.68 5.12-10.24 12.8-10.24 23.04 0 7.68 2.56 15.36 7.68 17.92 5.12 2.56 10.24 5.12 17.92 5.12 12.8 0 20.48-2.56 28.16-10.24 7.68-7.68 12.8-15.36 12.8-28.16v-15.36l-20.48-2.56z m0 0c-17.92 0-28.16 2.56-35.84 10.24-7.68 5.12-10.24 12.8-10.24 23.04 0 7.68 2.56 15.36 7.68 17.92 5.12 2.56 10.24 5.12 17.92 5.12 12.8 0 20.48-2.56 28.16-10.24 7.68-7.68 12.8-15.36 12.8-28.16v-15.36l-20.48-2.56z" fill="#727272" /><path d="M908.8 960m-12.8 0a12.8 12.8 0 1 0 25.6 0 12.8 12.8 0 1 0-25.6 0Z" fill="#FFFFFF" /><path d="M985.6 960m-12.8 0a12.8 12.8 0 1 0 25.6 0 12.8 12.8 0 1 0-25.6 0Z" fill="#FFFFFF" opacity=".5" /><path d="M1062.4 960m-12.8 0a12.8 12.8 0 1 0 25.6 0 12.8 12.8 0 1 0-25.6 0Z" fill="#FFFFFF" opacity=".5" /><path d="M1139.2 960m-12.8 0a12.8 12.8 0 1 0 25.6 0 12.8 12.8 0 1 0-25.6 0Z" fill="#FFFFFF" opacity=".5" /></svg>