<?xml version="1.0" standalone="no"?><!DOCTYPE svg PUBLIC "-//W3C//DTD SVG 1.1//EN" "http://www.w3.org/Graphics/SVG/1.1/DTD/svg11.dtd"><svg t="1587105113946" class="icon" viewBox="0 0 1024 1024" version="1.1" xmlns="http://www.w3.org/2000/svg" p-id="2894" xmlns:xlink="http://www.w3.org/1999/xlink" width="200" height="200"><defs><style type="text/css"></style></defs><path d="M710.073688 125.762811H309.12429c-138.152847 0-250.538596 95.609388-250.538596 213.137088v341.031629c0 117.528725 112.385749 213.199546 250.538596 213.199545h400.950422c138.150799 0 250.537572-95.669797 250.537571-213.199545V338.899899c0-117.527701-112.387797-213.137089-250.538595-213.137088z m207.593773 554.169741c0 97.418593-93.152063 176.603836-207.593773 176.603836H309.12429c-114.441711 0-207.593773-79.185243-207.593773-176.603836V338.899899c0-97.419617 93.152063-176.60486 207.593773-176.60486h400.950422c114.440687 0 207.593773 79.185243 207.593773 176.60486v341.032653z" fill="" p-id="2895"></path><path d="M423.564977 630.972403c14.387637 0.312285 21.580431 10.241925 21.580431 29.724415 0 19.85928-7.192794 29.726463-21.580431 29.726463H304.351961c-14.387637-0.250852-21.580431-10.179468-21.580431-29.726463 0-19.795799 7.192794-29.724415 21.580431-29.724415h26.207368V387.921481h-26.207368c-14.387637-0.249828-21.580431-10.17742-21.580431-29.724415 0-19.795799 7.192794-29.725439 21.580431-29.725439h119.213016c14.387637 0.312285 21.580431 10.240901 21.580431 29.725439 0 19.858256-7.192794 29.724415-21.580431 29.724415h-23.122403V630.972403h23.122403zM525.821428 333.279793c4.404755-3.184283 9.909162-4.808165 16.442574-4.808166H626.534884c32.153071 0 58.066585 8.304734 77.593102 24.917273 21.580431 17.797175 32.371158 44.774505 32.371158 80.870559 0 36.15851-10.497896 62.698642-31.344201 79.559985-22.314557 17.485914-48.522949 26.22887-78.620059 26.228871h-40.078967v132.015678c-0.366551 12.240549-12.038844 18.361336-34.941111 18.361335-23.344585 0-34.942134-6.120786-34.942134-18.361335V352.951701c0-8.430672 3.082919-14.987633 9.248756-19.671908z m60.634489 147.31662h40.078967c11.305742 0 20.701937-3.622506 28.263331-10.928952 7.852177-7.556274 11.817684-19.3586 11.817684-35.409026 0-16.861344-3.597933-28.975955-10.790727-36.283424-6.899963-6.680852-16.663734-10.054554-29.290288-10.054554h-40.078967v92.675956z" fill="" p-id="2896"></path></svg>