<?xml version="1.0" standalone="no"?><!DOCTYPE svg PUBLIC "-//W3C//DTD SVG 1.1//EN" "http://www.w3.org/Graphics/SVG/1.1/DTD/svg11.dtd"><svg t="1587893743605" class="icon" viewBox="0 0 1024 1024" version="1.1" xmlns="http://www.w3.org/2000/svg" p-id="9048" xmlns:xlink="http://www.w3.org/1999/xlink" width="200" height="200"><defs><style type="text/css"></style></defs><path d="M512 0c283.307 0 512 228.693 512 512s-228.693 512-512 512S0 795.307 0 512 228.693 0 512 0z" fill="#208077" p-id="9049"></path><path d="M413.013 723.627H614.4v88.746s-51.2 13.654-98.987 13.654c-51.2 0-98.986-13.654-98.986-13.654v-88.746h-3.414z" fill="#EFD0AF" p-id="9050"></path><path d="M286.72 471.04s0-10.24-17.067-10.24c-20.48 0-30.72 20.48-34.133 23.893-3.413 10.24-10.24 47.787 17.067 75.094 17.066 13.653 44.373 10.24 44.373 10.24l-10.24-98.987z m447.147 3.413s0-10.24 17.066-10.24c20.48 0 34.134 20.48 34.134 23.894 3.413 10.24 10.24 47.786-17.067 75.093-17.067 13.653-47.787 10.24-47.787 10.24l13.654-98.987z" fill="#F4DBBA" p-id="9051"></path><path d="M269.653 341.333s20.48 249.174 37.547 296.96c23.893 64.854 78.507 85.334 119.467 105.814C453.973 757.76 474.453 764.587 512 768c40.96 0 51.2-6.827 81.92-20.48 54.613-20.48 92.16-44.373 116.053-92.16 20.48-40.96 40.96-300.373 40.96-300.373L672.427 256l-402.774 85.333z" fill="#F4DBBA" p-id="9052"></path><path d="M515.413 1024L395.947 826.027h235.52z" fill="#EDF2F2" p-id="9053"></path><path d="M515.413 822.613l27.307 37.547-13.653 23.893 10.24 119.467-23.894 20.48-27.306-20.48 10.24-119.467-13.654-23.893z" fill="#EF6565" p-id="9054"></path><path d="M474.453 133.12C286.72 150.187 266.24 293.547 262.827 324.267c-3.414 27.306 6.826 136.533 6.826 136.533s10.24 6.827 10.24 10.24c3.414 13.653 3.414 44.373 3.414 44.373h10.24s-3.414-116.053 3.413-139.946c6.827-23.894 54.613-47.787 54.613-47.787s0 10.24-3.413 20.48-13.653 23.893-13.653 23.893 23.893 0 44.373-6.826c27.307-6.827 54.613-20.48 54.613-20.48s0 6.826-3.413 13.653-10.24 13.653-10.24 13.653 88.747-6.826 153.6-27.306c51.2-17.067 85.333-51.2 85.333-51.2s44.374 17.066 58.027 88.746c13.653 58.027 6.827 109.227 6.827 146.774h10.24s0-34.134 3.413-44.374c3.413-20.48 23.893-17.066 23.893-20.48 0-17.066 17.067-109.226 0-177.493-13.653-54.613-61.44-105.813-88.746-119.467-30.72-13.653-85.334-44.373-197.974-34.133z m269.654 696.32c-51.2-27.307-116.054-23.893-116.054-23.893L515.413 1024c116.054 0 218.454-37.547 303.787-102.4-6.827-23.893-23.893-68.267-75.093-92.16zM515.413 1024l-122.88-218.453s-64.853-3.414-116.053 23.893c-37.547 23.893-64.853 75.093-71.68 92.16 85.333 61.44 194.56 102.4 310.613 102.4z" fill="#312B28" p-id="9055"></path><path d="M614.4 771.413l-98.987 51.2 51.2 64.854 88.747-78.507z m-201.387 0l102.4 51.2-54.613 64.854-88.747-78.507z" fill="#FFFFFF" p-id="9056"></path><path d="M515.413 699.733c-13.653 0-34.133 0-47.786-13.653-3.414-3.413-3.414-6.827 0-6.827 3.413-3.413 6.826-3.413 6.826 0 10.24 10.24 23.894 13.654 40.96 13.654 20.48 0 34.134-3.414 40.96-13.654 0 0 3.414-3.413 6.827 0 3.413 0 3.413 3.414 3.413 3.414v3.413c-17.066 10.24-37.546 13.653-51.2 13.653z" fill="#E2C6A3" p-id="9057"></path></svg>