<?xml version="1.0" standalone="no"?><!DOCTYPE svg PUBLIC "-//W3C//DTD SVG 1.1//EN" "http://www.w3.org/Graphics/SVG/1.1/DTD/svg11.dtd"><svg class="icon" width="200px" height="200.00px" viewBox="0 0 1024 1024" version="1.1" xmlns="http://www.w3.org/2000/svg"><path fill="#bfbfbf" d="M512 681.813333v256c-117.76 0-218.453333-41.813333-302.08-125.457066C126.8736 729.2928 85.333333 628.906667 85.333333 511.146667h256c0 47.223467 16.503467 87.313067 49.493334 120.32 33.570133 33.570133 73.949867 50.346667 121.173333 50.346666z m0-597.333333c117.76 0 218.1632 41.5232 301.226667 124.586667C896.853333 292.693333 938.666667 393.096533 938.666667 510.293333H682.666667c0-46.6432-16.759467-86.749867-50.346667-120.32-33.006933-33.006933-73.079467-49.493333-120.32-49.493333v-256z"  /><path fill="#bfbfbf" d="M512 954.897067c-121.890133 0-227.584-43.895467-314.146133-130.474667C111.872 738.423467 68.266667 633.019733 68.266667 511.146667s43.588267-227.549867 129.536-314.112C284.433067 111.0016 390.109867 67.413333 512 67.413333c121.9072 0 227.310933 43.605333 313.2928 129.5872C911.854933 283.562667 955.733333 388.9664 955.733333 510.293333a17.066667 17.066667 0 0 1-17.066666 17.066667H699.101867c-3.515733 44.885333-21.9136 83.950933-54.818134 116.258133-31.9488 32.494933-70.7072 50.858667-115.217066 54.545067v222.2592a432.5888 432.5888 0 0 0 69.188266-7.901867 17.066667 17.066667 0 0 1 6.7072 33.467734 475.630933 475.630933 0 0 1-92.177066 8.874666c-0.273067 0.034133-0.529067 0.034133-0.785067 0.034134zM102.724267 528.213333c3.8912 105.284267 43.963733 196.744533 119.261866 272.0768 75.861333 75.861333 167.6288 116.241067 272.9472 120.149334V698.180267c-44.526933-3.6864-83.541333-22.033067-116.1728-54.647467-32.119467-32.119467-50.158933-70.843733-53.8112-115.319467H102.724267z m255.675733-17.066666c0 42.9056 14.557867 78.301867 44.4928 108.253866 30.532267 30.5152 66.218667 45.346133 109.1072 45.346134 42.837333 0 78.216533-14.7968 108.151467-45.243734C650.8032 589.380267 665.6 554.001067 665.6 511.146667v-0.426667-0.426667c0-42.3424-14.830933-77.755733-45.346133-108.2368-29.934933-29.952-65.3312-44.509867-108.253867-44.509866-42.973867 0-78.677333 14.574933-109.2096 44.5952C372.992 432.469333 358.4 468.189867 358.4 511.146667z m-255.675733-17.066667H324.949333c3.6352-44.475733 21.6576-83.456 53.691734-116.0704 32.785067-32.238933 71.799467-50.2784 116.2752-53.9136V101.870933c-105.3696 3.8912-197.137067 43.9808-272.9984 119.313067-75.229867 75.776-115.319467 167.543467-119.1936 272.896z m596.292266-0.853333h222.2592c-3.925333-104.789333-44.288-196.266667-120.1152-272.093867C725.845333 145.8176 634.385067 105.745067 529.066667 101.870933V324.096c44.475733 3.6352 83.217067 21.691733 115.319466 53.8112 32.580267 32.5632 50.909867 71.287467 54.6304 115.319467zM512 613.546667c-27.904 0-52.343467-10.308267-72.6528-30.600534C419.601067 563.2 409.6 539.050667 409.6 511.146667c0-27.8016 9.949867-52.189867 29.5424-72.465067 20.667733-20.002133 45.056-29.934933 72.8576-29.934933 27.921067 0 52.0704 10.001067 71.799467 29.7472C604.091733 458.786133 614.4 483.242667 614.4 511.146667c0 28.0064-10.359467 52.224-30.805333 72.004266-19.336533 20.036267-43.5712 30.395733-71.594667 30.395734z m0-170.666667c-18.8928 0-34.850133 6.519467-48.708267 19.933867-13.038933 13.482667-19.5584 29.422933-19.5584 48.3328 0 18.7904 6.4512 34.372267 19.7632 47.6672 13.858133 13.8752 29.713067 20.599467 48.503467 20.599466 18.670933 0 34.2016-6.673067 47.4624-20.394666 14.1312-13.687467 20.804267-29.218133 20.804267-47.872 0-18.7904-6.741333-34.6624-20.599467-48.520534-13.277867-13.277867-28.8768-19.746133-47.6672-19.746133z"  /><path fill="#bfbfbf" d="M811.52 599.04h128v84.48h-83.626667v174.08c-0.580267 20.48-9.6768 39.5264-27.3408 57.173333-16.503467 17.066667-36.4032 25.6-59.733333 25.6-23.296 0-43.52-8.533333-60.586667-25.6-16.503467-16.4864-24.746667-36.4032-24.746666-59.733333 0-23.296 8.2432-43.52 24.746666-60.586667 17.066667-16.503467 37.290667-24.746667 60.586667-24.746666a85.333333 85.333333 0 0 1 42.666667 11.093333l0.034133-181.76z"  /></svg>