<?xml version="1.0" standalone="no"?><!DOCTYPE svg PUBLIC "-//W3C//DTD SVG 1.1//EN" "http://www.w3.org/Graphics/SVG/1.1/DTD/svg11.dtd"><svg t="1588127172051" class="icon" viewBox="0 0 1024 1024" version="1.1" xmlns="http://www.w3.org/2000/svg" p-id="2615" xmlns:xlink="http://www.w3.org/1999/xlink" width="200" height="200"><defs><style type="text/css"></style></defs><path d="M934.7 175.4c-0.4-68.1-39.4-108.4-105.9-109.7-118.9-2.3-238-2.3-356.9-0.1C405 66.9 368.6 106 363.7 174.1c-1.7 24.2-2.3 48.6-0.2 72.6 3.4 42.7-11 75.9-41.3 106.4-65.3 65.5-127.4 134.2-192.4 200-26.6 26.9-39.9 56.1-39.6 93.9 0.6 85.8-1.5 171.9-0.9 257.7 0.2 19.4-9.9 51.9 23.7 50.3 25.6-1.5 18.5-30.8 18.8-49.3 1.3-77.2 2.7-154.3 1.7-231.3-0.5-40.1 11.7-72.2 40.9-100.2 34.9-33.6 66.4-70.6 100.8-104.7 22.7-22.5 48-42.4 72.2-63.4 29.1 29.5 10.8 66.2 14.6 99.6 7.8 68.3 1.4 131.8-61.4 176.5-7.2 5-11.6 26.7-6.9 33.1 12.1 16.3 27.1 6.6 39.1-4.8 9.5-8.9 18.8-18.4 28.2-27.7 39.1-38.8 77.3-78.4 117.8-115.9 6-5.5 12.5-11.2 19.4-16.3-0.3-1.3-0.6-2.7-0.7-4.2 1.4-14 9.8-21.8 25.3-23.2h78v-35.8h-78c-15.5-1.4-23.9-9.1-25.3-23.2 1.4-14 9.8-21.8 25.3-23.2h44.3l-67.5-94.9c-5.6-7-8.4-14.8-8.4-23.2 2.8-23.9 16.1-37.2 40.1-40.1 14 1.4 24.6 7 31.6 16.9l78 111.7 78-111.7c7-9.8 17.6-15.4 31.6-16.9 23.9 2.8 37.2 16.2 40.1 40.1 0 8.4-2.8 16.2-8.4 23.2L714.7 441H759c15.4 1.4 23.9 9.2 25.3 23.2-1.4 14.1-9.9 21.8-25.3 23.2h-78v35.8h78c15.4 1.4 23.9 9.2 25.3 23.2-1.4 14.1-9.9 21.8-25.3 23.2h-78V635c-1.4 23.9-14.8 35.8-40.1 35.8s-38.7-11.9-40.1-35.8v-18c-9.1 20.6-25.9 39.2-41.9 55.7-78.6 80.3-158.5 159.2-237.8 238.9-12 12.1-23.3 24.9-39 41.8 46.3 18.6 67.6-5.9 89.3-27.5 19.7-19.6 40.1-28.2 70.1-27.1 127.5 4.5 255.3 7.2 382.8 6 67.7-0.6 110.4-46.7 110.8-114.8 1.3-204.7 1.1-409.7-0.4-614.6z" p-id="2616"></path></svg>