<?xml version="1.0" standalone="no"?><!DOCTYPE svg PUBLIC "-//W3C//DTD SVG 1.1//EN" "http://www.w3.org/Graphics/SVG/1.1/DTD/svg11.dtd"><svg class="icon" width="200px" height="200.00px" viewBox="0 0 1024 1024" version="1.1" xmlns="http://www.w3.org/2000/svg"><path fill="#bfbfbf" d="M998.27925 932.454807l-69.544-581.64073a72.578648 72.578648 0 0 0-68.279564-64.739142h-166.399826V194.529742a187.642357 187.642357 0 1 0-375.031827 0v91.039419H156.670403a72.578648 72.578648 0 0 0-68.279564 64.739142l-69.544 581.640729c-6.069295 50.577455 22.001193 91.545193 62.463157 91.545193h854.506098c40.461964 0.505775 68.532451-41.220626 62.463156-91.039418zM369.601488 194.529742a137.064902 137.064902 0 1 1 273.876917 0v91.039419H369.601488z m-16.943447 346.708452a52.600553 52.600553 0 1 1 52.600552-52.600553 52.600553 52.600553 0 0 1-52.600552 52.600553z m310.798459 0a52.600553 52.600553 0 1 1 52.600553-52.600553 52.600553 52.600553 0 0 1-53.612102 52.600553z" /></svg>