<?xml version="1.0" standalone="no"?><!DOCTYPE svg PUBLIC "-//W3C//DTD SVG 1.1//EN" "http://www.w3.org/Graphics/SVG/1.1/DTD/svg11.dtd"><svg class="icon" width="200px" height="200.00px" viewBox="0 0 1024 1024" version="1.1" xmlns="http://www.w3.org/2000/svg"><path fill="#bfbfbf" d="M988.8 371.2l-44.8-246.4C937.6 89.6 908.8 64 870.4 64H147.2c-32 0-60.8 25.6-67.2 60.8l-44.8 246.4c-9.6 44.8 12.8 92.8 60.8 121.6V896c0 35.2 28.8 64 67.2 64h697.6c35.2 0 67.2-28.8 67.2-64V492.8c48-28.8 67.2-76.8 60.8-121.6m-128 329.6c0 19.2-16 32-32 32H195.2c-19.2 0-32-12.8-32-32v-176c9.6 3.2 19.2 3.2 32 3.2 86.4 0 160-70.4 160-153.6 0 86.4 70.4 153.6 160 153.6 86.4 0 156.8-67.2 160-150.4 3.2 83.2 73.6 150.4 160 150.4 9.6 0 19.2 0 32-3.2v176z" /></svg>