<?xml version="1.0" standalone="no"?><!DOCTYPE svg PUBLIC "-//W3C//DTD SVG 1.1//EN" "http://www.w3.org/Graphics/SVG/1.1/DTD/svg11.dtd"><svg class="icon" width="200px" height="200.00px" viewBox="0 0 1024 1024" version="1.1" xmlns="http://www.w3.org/2000/svg"><path fill="#bfbfbf" d="M259 900c-74.29 0-136.19-60.14-136.19-136.19S183 627.59 259 627.59c30.07 0 58.37 10.61 83.13 28.3l7.07 5.31V224.33c0-26.53 21.22-47.76 46-47.76l454.56-53.06h3.54c24.76-1.77 47.76 19.46 47.76 46v511.15c0 37.14-14.15 70.75-40.68 95.51-24.76 24.76-60.13 38.91-95.51 38.91-74.29 0-136.19-60.14-136.19-136.19 0-74.29 60.14-136.19 136.19-136.19A138.71 138.71 0 0 1 848 571l7.07 5.31v-237l-459.85 49.51v375C393.46 839.84 333.32 900 259 900z m0-224.63c-49.52 0-90.2 40.68-90.2 90.2s40.68 90.21 90.2 90.21 90.2-40.68 90.2-90.21c-1.77-51.29-40.68-90.2-90.2-90.2z m505.85-84.9c-49.52 0-90.2 40.68-90.2 90.21s40.68 90.2 90.2 90.2 90.2-40.68 90.2-90.2-40.68-90.21-90.2-90.21zM393.46 342.83l459.86-49.52V167.73l-454.56 53.06h-5.3z m0 0"  /><path fill="#bfbfbf" d="M259.97 763.98m-105 0a105 105 0 1 0 210 0 105 105 0 1 0-210 0Z"  /><path fill="#bfbfbf" d="M764.97 679.98m-105 0a105 105 0 1 0 210 0 105 105 0 1 0-210 0Z"  /><path fill="#bfbfbf" d="M259 900c-74.29 0-136.19-60.14-136.19-136.19S183 627.59 259 627.59c30.07 0 58.37 10.61 83.13 28.3l7.07 5.31V224.33c0-26.53 21.22-47.76 46-47.76l454.56-53.06h3.54c24.76-1.77 47.76 19.46 47.76 46v511.15c0 37.14-14.15 70.75-40.68 95.51-24.76 24.76-60.13 38.91-95.51 38.91-74.29 0-136.19-60.14-136.19-136.19 0-74.29 60.14-136.19 136.19-136.19A138.71 138.71 0 0 1 848 571l7.07 5.31v-237l-459.85 49.51v375C393.46 839.84 333.32 900 259 900z m0-224.63c-49.52 0-90.2 40.68-90.2 90.2s40.68 90.21 90.2 90.21 90.2-40.68 90.2-90.21c-1.77-51.29-40.68-90.2-90.2-90.2z m505.85-84.9c-49.52 0-90.2 40.68-90.2 90.21s40.68 90.2 90.2 90.2 90.2-40.68 90.2-90.2-40.68-90.21-90.2-90.21zM393.46 342.83l459.86-49.52V167.73l-454.56 53.06h-5.3z m0 0"  /><path fill="#bfbfbf" d="M880.62 307.72l-493.64 48.26V210.54l483-54.57 10.64 151.75z"  /></svg>