<?xml version="1.0" standalone="no"?><!DOCTYPE svg PUBLIC "-//W3C//DTD SVG 1.1//EN" "http://www.w3.org/Graphics/SVG/1.1/DTD/svg11.dtd"><svg t="1587104985050" class="icon" viewBox="0 0 1024 1024" version="1.1" xmlns="http://www.w3.org/2000/svg" p-id="2139" xmlns:xlink="http://www.w3.org/1999/xlink" width="200" height="200"><defs><style type="text/css"></style></defs><path d="M659.481368 721.837586c5.883611 5.278621 13.655941 8.493042 22.18216 8.493042 18.353756 0 33.232668-14.878912 33.232668-33.232668 0-10.778092-5.135118-20.3544-13.089725-26.425484l0.041172-0.050566-100.971741-81.940045-63.914666-52.272559-0.47188 0.021186-0.026582-0.021186 0-0.110325 0-13.297185 0-0.110325L536.462774 285.815609l-0.038574 0c-0.79626-17.645237-15.350792-31.709301-33.194094-31.709301-17.842103 0-32.398034 14.064065-33.194294 31.709301l-0.038574 0 0 253.649825 0 6.809983 0 7.646216c0 0 0.047967 0.090339 0.128913 0.248631 0.422713 3.619746 1.3267 7.090593 2.674587 10.335393 1.954075 4.701812 4.796148 8.942337 8.336148 12.491531l4.501148 3.652923 0.001399 0.001399 2.080389 1.717436c-0.131511-0.079746-0.267219-0.154096-0.394732-0.237839L659.481368 721.837586zM508.948829 66.347608c-247.633305 0-448.379399 200.745894-448.379399 448.378 0 247.633305 200.745894 448.379399 448.379399 448.379399 77.687528 0 150.747793-19.777391 214.4538-54.544219 2.214698-0.959749 4.317673-2.133553 6.284939-3.498828 6.75562-4.681826 11.897334-11.596737 14.404434-19.700243 1.099255-3.553191 1.694851-7.333828 1.694851-11.256568 0-20.672184-16.462239-37.429423-36.77007-37.429423-6.736832 0-13.045755 1.854343-18.477272 5.07396-1.079468 0.639367-2.12436 1.331897-3.129278 2.077791-53.191136 28.021801-113.93795 43.927017-178.460004 43.927017-209.456788 0-379.253666-167.408097-379.253666-373.915285S299.49204 139.923724 508.948829 139.923724c209.455589 0 379.255065 167.406698 379.255065 373.915285 0 61.906028-15.271046 120.292042-42.285331 171.714977-1.296121 1.771999-2.429952 3.67291-3.395098 5.674753-2.310434 4.801345-3.614349 10.202483-3.614349 15.91441 0 19.95567 15.842859 36.133302 35.385009 36.133302 8.43588 0 16.176432-3.018753 22.25671-8.048943 3.321948-2.749136 6.144034-6.102862 8.312164-9.892693 0.39753-0.744495 0.789665-1.491389 1.183198-2.238682 32.737004-62.25699 51.279433-133.143729 51.279433-208.368126C957.325429 267.093503 756.580934 66.347608 508.948829 66.347608z" p-id="2140"></path></svg>