<?xml version="1.0" standalone="no"?><!DOCTYPE svg PUBLIC "-//W3C//DTD SVG 1.1//EN" "http://www.w3.org/Graphics/SVG/1.1/DTD/svg11.dtd"><svg t="1587893776587" class="icon" viewBox="0 0 1024 1024" version="1.1" xmlns="http://www.w3.org/2000/svg" p-id="9410" xmlns:xlink="http://www.w3.org/1999/xlink" width="200" height="200"><defs><style type="text/css"></style></defs><path d="M943.866 829.01466667c-12.635-79.735-154.775-181.216-227.425-202.962-6.317 54.364-63.174 184.84-202.155 173.967S337.401 611.55466667 337.401 611.55466667c-123.188 54.365-192.679 148.598-214.789 188.465-22.112 39.868-12.636 199.147-12.636 199.147H956.5s0-90.418-12.634-170.152z" fill="#999999" p-id="9411"></path><path d="M526.922 626.05266667c146.537 0 265.328-136.304 265.328-304.443C792.25 153.47066667 673.459 17.16666667 526.922 17.16666667S261.593 153.47066667 261.593 321.60966667c0 168.139 118.792 304.443 265.329 304.443zM528 464.16666667c-12.979 0-23.5-10.521-23.5-23.5s10.521-23.5 23.5-23.5 23.5 10.521 23.5 23.5-10.521 23.5-23.5 23.5z m-55.5-275s42.893-33.797 97-15c49.484 17.191 50.497 63.095 47 80-4 19.333-18.103 42.062-43 62-19.202 15.377-25.333 26.667-27 32s-3 13.667-3 16v15h-32s-8.167-47.333 30-75c40.25-30.917 57.865-69.457 24-96-24.153-17.263-72.667-3.333-93 18v-37z" fill="#999999" p-id="9412"></path></svg>